<?xml version="1.0" encoding="UTF-8"?>
<!DOCTYPE svg PUBLIC "-//W3C//DTD SVG 1.1//EN" "http://www.w3.org/Graphics/SVG/1.1/DTD/svg11.dtd">
<!-- Creator: CorelDRAW 2021 (64-Bit) -->
<svg xmlns="http://www.w3.org/2000/svg" xml:space="preserve" width="200px" height="200px" version="1.1" style="shape-rendering:geometricPrecision; text-rendering:geometricPrecision; image-rendering:optimizeQuality; fill-rule:evenodd; clip-rule:evenodd"
viewBox="0 0 200 200"
 xmlns:xlink="http://www.w3.org/1999/xlink"
 xmlns:xodm="http://www.corel.com/coreldraw/odm/2003">
 <defs>
  <style type="text/css">
   <![CDATA[
    .str0 {stroke:white;stroke-linecap:round;stroke-linejoin:round;stroke-miterlimit:2.61313}
    .fil0 {fill:white}
   ]]>
  </style>
 </defs>
 <g id="Layer_x0020_1">
  <metadata id="CorelCorpID_0Corel-Layer"/>
  <path className="fil0 str0" d="M32.12 178.37c11.54,-45.92 -2.73,-27.71 -15.19,-59.56 -26.4,-67.53 64.08,-128.54 135.19,-84.46 29.52,18.31 43.92,53.83 29.9,86.87 -3.9,9.19 -12.13,20.42 -17.68,25.01 -21.66,17.9 -49.33,27.91 -82.23,22.13 -6.65,-1.17 -10.52,-3.85 -17.33,-0.68 -6.59,3.07 -24.77,10.28 -32.66,10.69zm-13.67 -32.58c6.43,7.76 7.82,3.94 3.38,22.65 -5.05,21.27 -13.12,27.48 1.66,24.73l21.57 -5.07c4.81,-1.35 8.95,-2.62 13.52,-4.3 19.58,-7.22 5.03,-5.3 27.45,-2.26 15.69,2.13 33.17,0.17 47.88,-4.29 17.62,-5.34 35.18,-17.27 43.97,-27.21 22.99,-26.03 30.22,-64.6 11.3,-94.91 -11.98,-19.21 -28.88,-33.4 -49.91,-40.87 -38.58,-13.7 -91.61,-6.37 -118.42,26.76 -25.43,31.44 -29.18,72.43 -2.4,104.77z"/>
 </g>
</svg>
