<svg xmlns="http://www.w3.org/2000/svg" version="1.0" width="458.000000pt" height="545.000000pt" viewBox="0 0 458.000000 545.000000" preserveAspectRatio="xMidYMid meet">

<g transform="translate(0.000000,545.000000) scale(0.100000,-0.100000)" fill="#ffffff" stroke="none">
<path d="M2019 5092 c-623 -353 -1847 -1067 -1874 -1093 -20 -19 -20 -33 -20 -1258 0 -1067 2 -1240 14 -1255 49 -59 2098 -1226 2152 -1226 53 0 2102 1169 2150 1226 12 15 14 196 14 1255 0 1225 0 1239 -20 1258 -24 23 -714 426 -1465 856 -617 353 -657 375 -686 375 -11 0 -130 -62 -265 -138z m395 -194 c180 -99 520 -293 1031 -588 650 -376 645 -372 639 -382 -17 -27 -714 -438 -743 -438 -30 0 -468 249 -1176 668 -444 262 -614 369 -615 384 0 14 707 417 734 417 11 1 69 -27 130 -61z m-1091 -524 c43 -22 1142 -667 1392 -817 224 -134 345 -214 345 -226 0 -15 -545 -331 -696 -403 l-82 -39 -43 22 c-44 22 -402 226 -1079 617 -583 336 -669 390 -655 412 10 16 759 450 777 450 5 0 23 -7 41 -16z m-48 -1184 l895 -515 0 -1037 c0 -664 -4 -1039 -10 -1043 -11 -7 -281 145 -1171 658 l-626 361 -6 210 c-4 115 -7 587 -7 1048 0 746 2 839 15 836 9 -2 418 -235 910 -518z m2948 233 c9 -367 9 -1533 1 -1689 l-7 -120 -126 -73 c-575 -335 -1658 -951 -1672 -951 -5 0 -9 404 -9 1043 l0 1042 108 61 c59 33 234 134 390 223 156 90 286 160 290 156 4 -4 10 -149 13 -323 3 -174 7 -318 8 -319 7 -13 205 94 223 121 4 6 8 106 9 221 1 116 4 268 8 339 l6 128 370 213 c204 118 373 214 376 214 3 1 9 -128 12 -286z" fill="#ffffff"/>
</g>
</svg>