<?xml version="1.0" encoding="UTF-8"?>
<!DOCTYPE svg PUBLIC "-//W3C//DTD SVG 1.1//EN" "http://www.w3.org/Graphics/SVG/1.1/DTD/svg11.dtd">
<!-- Creator: CorelDRAW 2021 (64-Bit) -->
<svg xmlns="http://www.w3.org/2000/svg" xml:space="preserve" width="200px" height="200px" version="1.1" style="shape-rendering:geometricPrecision; text-rendering:geometricPrecision; image-rendering:optimizeQuality; fill-rule:evenodd; clip-rule:evenodd"
viewBox="0 0 200 200"
 xmlns:xlink="http://www.w3.org/1999/xlink"
 xmlns:xodm="http://www.corel.com/coreldraw/odm/2003">
 <defs>
  <style type="text/css">
   <![CDATA[
    .fil0 {fill:white}
   ]]>
  </style>
 </defs>
 <g id="Layer_x0020_1">
  <metadata id="CorelCorpID_0Corel-Layer"/>
  <g id="_2737545006064">
   <path className="fil0" d="M85.7 146.11c0,-10.49 9.3,-8.48 20.08,-8.48 5.47,0 8.48,3.01 8.48,8.48l0 27.23 -28.56 0 0 -27.23zm-14.29 -3.12l0 30.35 -27.22 0c-5.47,0 -8.48,-3.01 -8.48,-8.48l0 -59.81c0,-6.8 5.45,-8.55 13.65,-14.02l50.62 -33.74 58.65 39.1c3.34,2.22 5.63,3.19 5.63,8.66l0 59.81c0,5.47 -3.01,8.48 -8.49,8.48l-27.22 0 0 -30.35c0,-9.68 -9.97,-19.65 -19.64,-19.65 -8.81,0 -19.05,-1.14 -25.61,2.08 -6.55,3.2 -11.89,10.61 -11.89,17.57zm-49.99 -41.07l0 66.06c0,4.61 3.16,10.79 6.38,13.71 3.79,3.45 8.7,5.93 14.16,5.93l116.04 0c10.85,0 20.54,-9.69 20.54,-20.53l0 -65.17c0,-2.36 -0.88,-5.01 -1.65,-6.83 -2.57,-6.09 -7.75,-9.25 -13.08,-12.81l-41.51 -27.67c-3.91,-2.61 -18.84,-13.39 -21.43,-13.39 -5.28,0 -7.38,2.86 -12.49,6.25l-31.34 20.89c-4.69,3.12 -27.65,17.68 -30.46,21.31 -2.64,3.4 -5.16,7.36 -5.16,12.25z"/>
   <path className="fil0" d="M157.11 48.36l0 -17.86 7.15 0 0 23.21c-1.72,-0.45 -2.42,-1.43 -3.84,-2.41 -1.06,-0.73 -3.31,-1.67 -3.31,-2.94zm-157.11 33.92c0,4.68 4.88,11.14 13.32,4.84l51.13 -35.46c2.07,-1.37 3.49,-2.49 5.54,-3.83 2.09,-1.39 3.71,-2.6 5.8,-4.02 4.13,-2.79 20.6,-15.09 23.3,-15.09 4.5,0 8.37,3.49 13.13,6.95 3.84,2.8 7.59,5.06 11.35,7.85 9.74,7.23 24.31,16.28 34.06,23.52 3.75,2.79 7.5,5.04 11.35,7.84l17.15 11.87c1.8,1.28 3.58,3.12 6.69,3.12 6.03,0 10.64,-8.46 3.71,-13.53l-17.99 -12.36c0,-10.12 -0.01,-20.23 0,-30.35 0,-6.17 -0.19,-8.54 -3.05,-12.13 -5.12,-6.41 -11.32,-5.28 -19.27,-5.28 -5.07,0 -9.24,3.38 -11.26,6.6 -2.96,4.72 -2.13,8.95 -2.13,16.16l-20.18 -13.74c-12.6,-8.43 -20.6,-17.69 -37.84,-5.45l-30.8 21.43c-1.14,0.75 -2.06,1.47 -3.13,2.23l-46.68 32.32c-2.07,1.49 -4.2,3.17 -4.2,6.51z"/>
  </g>
 </g>
</svg>
