<?xml version="1.0" encoding="UTF-8"?>
<svg version="1.1" xmlns="http://www.w3.org/2000/svg" width="21" height="21">
<path d="M0 0 C4.95 0 9.9 0 15 0 C15 2.31 15 4.62 15 7 C15.99 7.33 16.98 7.66 18 8 C17.88652381 9.97986082 17.7589065 11.95891598 17.625 13.9375 C17.55539063 15.03964844 17.48578125 16.14179688 17.4140625 17.27734375 C17.27742188 18.17582031 17.14078125 19.07429688 17 20 C13.96570323 21.51714839 10.82398333 21.14363916 7.5 21.125 C6.81035156 21.12886719 6.12070313 21.13273437 5.41015625 21.13671875 C0.25333293 21.12666646 0.25333293 21.12666646 -2 20 C-2.4140625 17.27734375 -2.4140625 17.27734375 -2.625 13.9375 C-2.69976562 12.83277344 -2.77453125 11.72804688 -2.8515625 10.58984375 C-2.90054687 9.73519531 -2.94953125 8.88054688 -3 8 C-2.01 7.67 -1.02 7.34 0 7 C0 4.69 0 2.38 0 0 Z M2 2 C2 3.65 2 5.3 2 7 C3.65 7 5.3 7 7 7 C7.33 8.32 7.66 9.64 8 11 C8 9.68 8 8.36 8 7 C9.65 7 11.3 7 13 7 C13 5.35 13 3.7 13 2 C9.37 2 5.74 2 2 2 Z M0 9 C0 12.3 0 15.6 0 19 C0.99 19 1.98 19 3 19 C2.814375 18.2575 2.62875 17.515 2.4375 16.75 C2.00796892 14.05009037 2.14877026 12.55368923 3 10 C2.01 9.67 1.02 9.34 0 9 Z M12 9 C12 9.763125 12 10.52625 12 11.3125 C12 13.875 12 16.4375 12 19 C12.99 19 13.98 19 15 19 C15 15.7 15 12.4 15 9 C14.01 9 13.02 9 12 9 Z " fill="#FFFFFF" transform="translate(3,0)"/>
<path d="M0 0 C2.97 0 5.94 0 9 0 C9 0.66 9 1.32 9 2 C6.04335481 3.4783226 3.25770263 3.06032783 0 3 C0 2.01 0 1.02 0 0 Z " fill="#FFFFFF" transform="translate(6,3)"/>
</svg>
