<?xml version="1.0" encoding="utf-8"?>
<!-- Generator: Adobe Illustrator 27.5.0, SVG Export Plug-In . SVG Version: 6.00 Build 0)  -->
<svg version="1.1" xmlns="http://www.w3.org/2000/svg" xmlns:xlink="http://www.w3.org/1999/xlink" x="0px" y="0px"
	 viewBox="0 0 750 500" style="enable-background:new 0 0 750 500;" xml:space="preserve">
<g id="BACKGROUND">
	<rect style="fill:#F5EFE0;" width="750" height="500"/>
</g>
<g id="OBJECTS">
	<g>
		<g style="opacity:0.5;">
			<g>
				<g>
					<path style="fill:#DBCCBA;" d="M629.787,189.788c-0.008-52.515-43.732-110.058-98.151-113.534
						c-0.956-0.061-1.922-0.114-2.897-0.16c-78.015-3.636-83.959,91.516-154.544,102.247
						c-70.585,10.732-143.534-40.621-209.185-5.617C92.45,211.413,68.847,380.375,291.723,387.529
						C470.043,393.252,629.811,346.467,629.787,189.788z"/>
				</g>
			</g>
		</g>
		<g>
			<g>
				<path style="fill:#DBCCBA;" d="M644.181,145.99c1.193-0.231,2.358-0.623,3.469-1.179l3.652,4.107l4.5-4.002l-3.496-3.931
					c0.825-1.066,1.469-2.23,1.932-3.452l6.143,0.36l0.353-6.012l-5.667-0.331c-0.144-1.686-0.6-3.349-1.377-4.901l4.107-3.653
					l-4.002-4.5l-3.931,3.496c-1.267-0.979-2.673-1.699-4.149-2.169l0.299-5.097l-6.012-0.352l-0.288,4.924
					c-1.772,0.245-3.505,0.847-5.093,1.801l-3.495-3.931l-4.5,4.002l3.653,4.107c-0.683,1.039-1.207,2.149-1.576,3.307l-5.806-0.341
					l-0.353,6.012l5.634,0.33c0.245,1.772,0.847,3.505,1.801,5.093l-3.931,3.495l4.002,4.5l4.107-3.652
					c1.247,0.818,2.597,1.423,4.005,1.79l-0.331,5.632l6.011,0.353L644.181,145.99z M637.464,136.378
					c-2.023-2.274-1.817-5.77,0.457-7.792c2.274-2.023,5.769-1.817,7.792,0.457c2.023,2.274,1.817,5.769-0.457,7.792
					C642.982,138.857,639.487,138.652,637.464,136.378z"/>
				<path style="fill:#DBCCBA;" d="M623.932,109.46c0.653-0.124,1.29-0.335,1.898-0.637l1.987,2.252l2.468-2.177l-1.902-2.156
					c0.453-0.581,0.808-1.215,1.063-1.882l3.357,0.21l0.206-3.285l-3.096-0.193c-0.075-0.922-0.32-1.831-0.742-2.681l2.252-1.988
					l-2.177-2.468l-2.156,1.902c-0.69-0.538-1.457-0.934-2.263-1.194L625,92.379l-3.285-0.205l-0.168,2.69
					c-0.969,0.13-1.917,0.455-2.787,0.973l-1.902-2.156l-2.468,2.177l1.988,2.252c-0.375,0.566-0.664,1.172-0.868,1.804
					l-3.172-0.199l-0.206,3.285l3.078,0.192c0.13,0.969,0.455,1.917,0.973,2.787l-2.156,1.902l2.177,2.468l2.252-1.987
					c0.68,0.45,1.416,0.783,2.185,0.986l-0.193,3.077l3.284,0.206L623.932,109.46z M620.282,104.193
					c-1.1-1.247-0.981-3.157,0.266-4.257c1.247-1.1,3.157-0.981,4.258,0.266c1.101,1.247,0.981,3.157-0.266,4.257
					S621.383,105.44,620.282,104.193z"/>
			</g>
		</g>
		<g>
			<g>
				<path style="fill:#DBCCBA;" d="M103.561,320.079l4.802-3.633l-3.404-4.5c0.967-1.087,1.754-2.34,2.336-3.713l5.444,0.755
					l0.827-5.965l-5.21-0.723c-0.09-1.85-0.552-3.625-1.332-5.235l4.501-3.404l-3.633-4.802l-4.638,3.509
					c-0.949-0.758-2.002-1.39-3.147-1.874l0.756-5.444l-5.965-0.827l-0.723,5.21c-1.85,0.089-3.625,0.552-5.235,1.332l-2.975-3.934
					l-4.803,3.632l3.08,4.072c-0.966,1.211-1.736,2.591-2.245,4.109l-5.211-0.723l-0.827,5.965l5.444,0.756
					c0.216,1.723,0.76,3.358,1.577,4.84l-4.528,3.424l3.633,4.802l4.908-3.712c1.064,0.759,2.246,1.368,3.524,1.797l-0.723,5.211
					l5.965,0.827l0.755-5.444c1.232-0.155,2.419-0.476,3.539-0.947L103.561,320.079z M94.074,308.425
					c-3.015-0.419-5.127-3.211-4.709-6.225c0.418-3.015,3.211-5.127,6.225-4.709c3.015,0.418,5.127,3.211,4.709,6.225
					C99.881,306.731,97.088,308.843,94.074,308.425z"/>
				<path style="fill:#DBCCBA;" d="M99.606,275.424l2.617-1.996l-1.87-2.452c0.526-0.596,0.954-1.283,1.269-2.034l2.976,0.401
					l0.439-3.262l-2.849-0.384c-0.053-1.011-0.309-1.98-0.739-2.858l2.453-1.87l-1.996-2.617l-2.527,1.927
					c-0.52-0.412-1.097-0.755-1.724-1.018l0.402-2.977l-3.262-0.44l-0.384,2.849c-1.011,0.053-1.98,0.309-2.858,0.739l-1.634-2.144
					l-2.617,1.995l1.692,2.219c-0.525,0.664-0.943,1.419-1.218,2.25l-2.849-0.384l-0.439,3.261l2.977,0.402
					c0.122,0.941,0.423,1.833,0.872,2.642l-2.467,1.881l1.996,2.617l2.674-2.039c0.583,0.413,1.23,0.743,1.93,0.975l-0.384,2.849
					l3.262,0.439l0.401-2.976c0.673-0.087,1.321-0.265,1.932-0.525L99.606,275.424z M94.397,269.075
					c-1.648-0.222-2.809-1.744-2.586-3.392c0.222-1.648,1.744-2.809,3.392-2.586c1.648,0.222,2.809,1.744,2.586,3.392
					C97.567,268.137,96.045,269.297,94.397,269.075z"/>
			</g>
		</g>
	</g>
	<g>
		<ellipse style="fill:#DBCCBA;" cx="386.533" cy="454.539" rx="295.452" ry="11.501"/>
	</g>
	<g>
		<g>
			<g>
				<g>
					<g>
						<g>
							<polygon style="fill:#A75436;" points="206.867,425.892 208.044,435.241 219.968,435.241 220.662,425.401 							"/>
						</g>
					</g>
				</g>
				<g>
					<g>
						<g>
							<g>
								<polygon style="fill:#A75436;" points="238.747,424.375 240.195,435.24 252.12,435.24 251.66,424.051 								"/>
							</g>
						</g>
					</g>
					<g>
						<g>
							<path style="fill:#C47B38;" d="M281.546,454.074h-45.1c-0.336-0.609-0.518-1.474-0.593-2.505
								c-0.282-3.815,0.934-9.903,1.53-13.742c0.072-0.449,0.134-0.867,0.183-1.246c0.083-0.641,0.134-1.176,0.134-1.568
								c0-3.133,2.773-2.596,2.773-2.596c4.564,4.475,9.732-2.236,12.749-0.035c0,0,1.299,0.931,4.881,4.153
								c3.578,3.221,9.67,5.348,14.854,7.517c6.693,2.797,8.59,5.592,8.961,7.517C282.209,453.094,281.546,454.074,281.546,454.074z
								"/>
						</g>
						<g>
							<g>
								<g>
									<g>
										<path style="fill:#9E5022;" d="M281.546,454.074h-45.1c-0.336-0.609-0.518-1.474-0.593-2.505h46.064
											C282.209,453.094,281.546,454.074,281.546,454.074z"/>
									</g>
								</g>
							</g>
						</g>
						<g>
							<g>
								<g>
									<g>
										<g>
											<path style="fill:#9E5022;" d="M241.047,454.074h-1.34c1.337-1.527,2.588-3.871,2.424-7.221
												c-0.217-4.456-2.891-7.46-4.749-9.025c0.072-0.449,0.134-0.867,0.183-1.246c2.003,1.53,5.377,4.881,5.64,10.217
												C243.361,449.999,242.311,452.385,241.047,454.074z"/>
										</g>
									</g>
								</g>
							</g>
						</g>
						<g>
							<g>
								<g>
									<g>
										<path style="fill:#F5EFE0;" d="M257.337,439.196c-0.334,0-0.637-0.226-0.721-0.565c-0.099-0.398,0.144-0.802,0.542-0.9
											l2.817-0.699c0.398-0.1,0.801,0.144,0.9,0.542c0.099,0.398-0.144,0.802-0.542,0.9l-2.817,0.699
											C257.456,439.189,257.396,439.196,257.337,439.196z"/>
									</g>
								</g>
							</g>
						</g>
						<g>
							<g>
								<g>
									<g>
										<path style="fill:#F5EFE0;" d="M254.537,436.851c-0.334,0-0.637-0.226-0.721-0.564c-0.099-0.398,0.144-0.801,0.542-0.9
											l2.817-0.699c0.398-0.1,0.802,0.144,0.9,0.542c0.099,0.398-0.144,0.802-0.542,0.9l-2.817,0.699
											C254.657,436.843,254.596,436.851,254.537,436.851z"/>
									</g>
								</g>
							</g>
						</g>
						<g>
							<g>
								<g>
									<g>
										<path style="fill:#F5EFE0;" d="M260.154,440.834c-0.333,0-0.637-0.226-0.721-0.565c-0.099-0.398,0.144-0.801,0.542-0.9
											l2.817-0.699c0.398-0.1,0.802,0.144,0.9,0.542c0.099,0.398-0.144,0.801-0.542,0.9l-2.817,0.699
											C260.274,440.826,260.213,440.834,260.154,440.834z"/>
									</g>
								</g>
							</g>
						</g>
						<g>
							<g>
								<g>
									<g>
										<path style="fill:#F5EFE0;" d="M262.971,442.408c-0.333,0-0.637-0.226-0.72-0.565c-0.099-0.398,0.144-0.802,0.542-0.9
											l2.817-0.699c0.399-0.1,0.802,0.144,0.9,0.542c0.099,0.398-0.144,0.801-0.542,0.9l-2.818,0.699
											C263.091,442.401,263.031,442.408,262.971,442.408z"/>
									</g>
								</g>
							</g>
						</g>
						<g>
							<g>
								<g>
									<g>
										<path style="fill:#F5EFE0;" d="M266.043,443.864c-0.333,0-0.637-0.226-0.721-0.565c-0.099-0.398,0.144-0.802,0.542-0.9
											l2.817-0.7c0.398-0.099,0.802,0.144,0.9,0.542c0.099,0.398-0.144,0.801-0.542,0.9l-2.817,0.699
											C266.163,443.857,266.103,443.864,266.043,443.864z"/>
									</g>
								</g>
							</g>
						</g>
						<g>
							<g>
								<g>
									<g>
										<path style="fill:#F5EFE0;" d="M269.375,445.105c-0.333,0-0.637-0.226-0.721-0.564c-0.099-0.398,0.144-0.801,0.542-0.9
											l2.817-0.699c0.398-0.1,0.801,0.144,0.9,0.542c0.099,0.398-0.144,0.801-0.542,0.9l-2.818,0.699
											C269.494,445.098,269.434,445.105,269.375,445.105z"/>
									</g>
								</g>
							</g>
						</g>
					</g>
					<g>
						<g>
							<g>
								<path style="fill:#1F271D;" d="M188.339,265.186c0.117,0.47,0.243,0.93,0.382,1.378c0.005,0.017,0.01,0.036,0.014,0.052
									c0.188,0.608,0.396,1.193,0.622,1.751c2.02,4.946,17.633,5.671,33.004,3.952c11.921-1.333,23.698-4.14,28.868-7.593
									c4.856-3.241-5.485-33.149-5.485-33.149l-58.313,12.239C187.43,243.816,186.118,256.253,188.339,265.186z"/>
							</g>
						</g>
					</g>
					<g>
						<path style="fill:#1F271D;" d="M223.467,272.191l9.553,82.462c-2.199,13.875,3.723,70.691,3.723,70.691l17.171-0.52
							l4.987-75.257c-0.114-21.788-2.409-51.908-5.79-84.768c-0.052-0.503-0.102-1.006-0.157-1.512
							c-0.172-1.677-0.348-3.363-0.529-5.053c-0.048-0.451-0.095-0.901-0.143-1.355l-5.614,2.585l-1.376,0.634l-22.048,10.155
							L223.467,272.191z"/>
					</g>
					<g>
						<g>
							<g>
								<path style="fill:#514933;" d="M239.479,422.98c0.029,0,0.059-0.001,0.088-0.005c0.392-0.048,0.671-0.405,0.623-0.798
									c-6.108-49.629-2.148-70.029-2.107-70.229c0.016-0.077,0.019-0.157,0.008-0.236l-10.303-78.645
									c-0.051-0.392-0.411-0.669-0.802-0.617c-0.392,0.051-0.668,0.411-0.617,0.802l10.288,78.532
									c-0.323,1.776-3.785,22.653,2.112,70.566C238.815,422.715,239.123,422.98,239.479,422.98z"/>
							</g>
						</g>
					</g>
					<g>
						<g>
							<g>
								<g>
									<path style="fill:#514933;" d="M239.092,247.241c0.069,0.37,1.479,7.679,6.198,12.857c0.954,1.047,2.042,2.006,3.282,2.802
										c0.968,0.622,1.982,1.116,3.043,1.476c0.489,0.172,0.987,0.312,1.495,0.422c-0.052-0.503-0.102-1.006-0.157-1.512
										c-0.241-0.062-0.479-0.131-0.715-0.21c-1.011-0.332-1.977-0.789-2.893-1.379c-0.992-0.639-1.884-1.4-2.678-2.234
										c-4.71-4.922-6.15-12.396-6.167-12.484c-0.072-0.386-0.443-0.644-0.835-0.572
										C239.276,246.48,239.021,246.852,239.092,247.241z"/>
								</g>
							</g>
						</g>
					</g>
					<g>
						<g>
							<g>
								<g>
									<path style="fill:#514933;" d="M227.304,269.218c0.015,0.315-0.237,0.585-0.563,0.603c-0.002,0-0.002,0-0.005,0
										c-0.329,0.016-0.608-0.229-0.623-0.546c-0.105-2.156-0.232-4.365-0.371-6.57c-0.024-0.388-0.049-0.776-0.075-1.164
										c-0.469-7.207-1.064-14.283-1.514-19.279c-0.037-0.404-0.071-0.796-0.107-1.172c-0.1-1.096-0.191-2.068-0.268-2.892
										c0.396-0.061,0.791-0.126,1.181-0.191c0.077,0.823,0.169,1.805,0.269,2.912c0.035,0.376,0.07,0.768,0.107,1.172
										c0.444,4.952,1.036,11.966,1.505,19.13c0.027,0.395,0.052,0.792,0.079,1.187
										C227.063,264.695,227.195,266.986,227.304,269.218z"/>
								</g>
							</g>
						</g>
					</g>
					<g>
						<path style="fill:#514933;" d="M229.003,261.611c-0.186,0.089-1.022,0.477-2.083,0.798c-0.371,0.113-0.769,0.216-1.178,0.297
							c-0.373,0.072-0.753,0.126-1.129,0.147c-0.721,0.041-1.418-0.035-2-0.314c-0.724-0.346-1.194-0.977-1.357-1.82
							c-0.434-2.223-1.344-11.404-1.956-17.898c-0.039-0.399-0.076-0.789-0.111-1.167c-0.097-1.039-0.184-1.984-0.258-2.786
							c0.394-0.048,0.79-0.095,1.186-0.148c0.074,0.807,0.161,1.764,0.262,2.816c0.036,0.376,0.072,0.766,0.109,1.167
							c0.614,6.478,1.521,15.645,1.941,17.8c0.095,0.497,0.323,0.816,0.718,1.006c0.631,0.301,1.578,0.238,2.519,0.033
							c0.401-0.087,0.801-0.2,1.174-0.32c0.683-0.221,1.278-0.471,1.636-0.641c0.295-0.141,0.653-0.025,0.798,0.259
							C229.42,261.124,229.298,261.47,229.003,261.611z"/>
					</g>
				</g>
				<g>
					<g>
						<g>
							<g>
								<g>
									<path style="fill:#1F271D;" d="M187.52,253.438c0,0,0.414,4.639,1.072,11.749c0.041,0.443,0.085,0.896,0.126,1.362
										c0.002,0.004,0.002,0.011,0.002,0.016c0,0.016,0.002,0.034,0.007,0.053c0.043,0.464,0.087,0.937,0.13,1.417
										c1.664,17.911,4.521,47.656,6.395,61.96c0,0-0.279,26.918,0.718,47.69c0.923,19.301,7.578,42.454,8.518,48.177h17.701
										l0.173-2.542V262.845c0,0-7.958-3.798-16.505-6.708c-0.462-0.158-0.926-0.311-1.392-0.464
										c-0.882-0.286-1.767-0.562-2.646-0.82c-0.469-0.137-0.935-0.27-1.399-0.398
										C195.153,253.013,190.262,252.298,187.52,253.438z"/>
								</g>
							</g>
						</g>
					</g>
					<g>
						<g>
							<g>
								<path style="fill:#514933;" d="M206.42,425.09c0.045,0,0.091-0.004,0.136-0.013c0.388-0.075,0.642-0.45,0.567-0.838
									c-0.049-0.252-4.894-25.366-6.99-39.592c-2.09-14.181-1.06-54.07-1.049-54.471c0.001-0.034-0.001-0.069-0.005-0.103
									c-1.57-13.342-4.779-59.408-4.812-59.871c-0.028-0.394-0.369-0.691-0.764-0.664c-0.394,0.027-0.691,0.369-0.664,0.764
									c0.032,0.463,3.236,46.446,4.812,59.889c-0.042,1.658-1.008,40.598,1.065,54.666c2.101,14.257,6.952,39.402,7.001,39.655
									C205.785,424.853,206.084,425.09,206.42,425.09z"/>
							</g>
						</g>
					</g>
					<g>
						<g>
							<g>
								<g>
									<g>
										<g>
											<path style="fill:#C47B38;" d="M224.947,451.181c0,0.107-0.003,0.212-0.005,0.314c-0.01,0.477-0.031,0.906-0.051,1.274
												c-0.049,0.809-0.107,1.307-0.107,1.307H197.92c0,0-0.133-1.039-0.031-2.581c0.176-2.745,1.088-7.081,4.798-9.946
												c5.079-3.927,3.118-3.107,4.16-4.897c0.118-0.199,1.032-3.24,1.129-3.45c0.873-1.859,1.678-2.737,6.491-2.737
												c6.383,0,6.945,3.097,7.627,4.729c0.281,0.677,0.666,2.099,1.062,3.792c0.161,0.679,0.322,1.404,0.48,2.142
												c0.393,1.851,0.761,3.784,1.011,5.327C224.912,448.107,224.968,449.808,224.947,451.181z"/>
										</g>
									</g>
								</g>
							</g>
							<g>
								<g>
									<g>
										<g>
											<g>
												<path style="fill:#9E5022;" d="M224.947,451.181c0,0.107-0.003,0.212-0.005,0.314c-0.01,0.477-0.031,0.906-0.051,1.274
													c-1.31-0.919-2.244-2.132-2.791-3.618c-1.662-4.527,0.894-9.961,1.001-10.19l0.054,0.025
													c0.161,0.679,0.322,1.404,0.48,2.142c-0.605,1.849-1.302,4.956-0.335,7.586
													C223.653,449.672,224.204,450.497,224.947,451.181z"/>
											</g>
										</g>
									</g>
								</g>
							</g>
							<g>
								<path style="fill:#9E5022;" d="M224.942,451.496c-0.035,1.529-0.158,2.581-0.158,2.581H197.92c0,0-0.133-1.039-0.031-2.581
									H224.942z"/>
							</g>
						</g>
						<g>
							<g>
								<g>
									<g>
										<path style="fill:#F5EFE0;" d="M215.352,438.84c-0.063,0-0.128-0.008-0.192-0.025c-3.417-0.885-6.201-0.136-6.228-0.128
											c-0.408,0.113-0.83-0.126-0.943-0.534c-0.113-0.408,0.126-0.83,0.534-0.943c0.129-0.036,3.211-0.865,7.02,0.122
											c0.41,0.106,0.656,0.524,0.55,0.934C216.003,438.611,215.692,438.84,215.352,438.84z"/>
									</g>
								</g>
							</g>
						</g>
						<g>
							<g>
								<g>
									<g>
										<path style="fill:#F5EFE0;" d="M215.771,435.945c-0.064,0-0.128-0.008-0.193-0.025c-3.417-0.885-6.2-0.136-6.228-0.128
											c-0.408,0.113-0.83-0.126-0.942-0.534c-0.113-0.408,0.126-0.83,0.534-0.943c0.129-0.036,3.211-0.865,7.02,0.122
											c0.409,0.106,0.656,0.524,0.55,0.934C216.423,435.716,216.112,435.945,215.771,435.945z"/>
									</g>
								</g>
							</g>
						</g>
						<g>
							<g>
								<g>
									<g>
										<path style="fill:#F5EFE0;" d="M214.203,441.267c-0.063,0-0.128-0.008-0.192-0.025c-3.395-0.879-6.202-0.135-6.23-0.128
											c-0.408,0.111-0.829-0.129-0.941-0.536c-0.112-0.407,0.127-0.828,0.534-0.941c0.129-0.036,3.211-0.864,7.021,0.122
											c0.409,0.106,0.656,0.524,0.549,0.934C214.855,441.038,214.544,441.267,214.203,441.267z"/>
									</g>
								</g>
							</g>
						</g>
						<g>
							<g>
								<g>
									<g>
										<path style="fill:#F5EFE0;" d="M212.853,444.026c-0.064,0-0.128-0.008-0.193-0.025c-3.394-0.879-6.201-0.136-6.229-0.128
											c-0.408,0.112-0.829-0.129-0.941-0.536c-0.112-0.408,0.127-0.829,0.534-0.941c0.129-0.036,3.211-0.865,7.021,0.122
											c0.41,0.106,0.656,0.524,0.549,0.934C213.505,443.797,213.194,444.026,212.853,444.026z"/>
									</g>
								</g>
							</g>
						</g>
					</g>
					<g>
						<g>
							<g>
								<g>
									<path style="fill:#514933;" d="M188.717,266.549c0.002,0.004,0.002,0.011,0.002,0.016c0,0.016,0.002,0.034,0.007,0.053
										c0.043,0.464,0.087,0.937,0.13,1.417c2.03,0.343,4.013,0.167,5.94-0.533c3.663-1.328,6.538-4.324,8.625-7.309
										c0.99-1.415,1.801-2.827,2.434-4.057c1.074-2.084,1.641-3.647,1.705-3.821c0.133-0.375-0.064-0.782-0.434-0.914
										c-0.377-0.135-0.781,0.062-0.914,0.434c-0.016,0.041-0.606,1.671-1.748,3.837c-0.603,1.147-1.36,2.445-2.269,3.739
										c-1.952,2.786-4.594,5.556-7.889,6.747C192.509,266.81,190.639,266.94,188.717,266.549z"/>
									<g>
										<path style="fill:#F5EFE0;" d="M199.983,273.242c0.628,0,1.275-0.086,1.94-0.259c8.572-2.228,8.12-22.995,8.096-23.878
											l-1.112,0.029c0.006,0.208,0.458,20.764-7.264,22.771c-1.885,0.49-3.526,0.184-5.017-0.934
											c-6.706-5.032-7.348-24.399-7.354-24.594l-1.112,0.032c0.024,0.818,0.664,20.099,7.798,25.452
											C197.184,272.781,198.532,273.242,199.983,273.242z"/>
									</g>
								</g>
							</g>
						</g>
					</g>
				</g>
			</g>
			<g>
				<g>
					<g>
						<g>
							<g>
								<g>
									<g>
										<g>
											<g>
												<g>
													<path style="fill:#3D4C83;" d="M253.371,238.915c-0.657,0.614-1.361,1.214-2.105,1.795
														c-0.177,0.144-0.36,0.28-0.544,0.417c-1.204,0.911-2.509,1.775-3.906,2.592c-0.2,0.12-0.4,0.237-0.604,0.35
														c-5.297,3.006-11.819,5.344-18.925,6.705c-1.651,0.317-3.336,0.58-5.041,0.787c-1.928,0.234-3.886,0.394-5.861,0.477
														c-1.458,0.06-2.926,0.077-4.4,0.05c-0.304-0.003-0.604-0.013-0.907-0.023c-8.604-0.267-17.357-2.082-25.334-5.905
														c-0.103-0.047-0.203-0.097-0.307-0.147c-0.057-0.16-0.117-0.327-0.173-0.504c-1.618-4.891-3.313-16.437-4.534-26.184
														c-0.03-0.223-0.057-0.447-0.083-0.667c-0.537-4.31-0.978-8.223-1.271-10.989c-0.027-0.257-0.053-0.504-0.077-0.741
														c-0.05-0.454-0.093-0.867-0.13-1.241c-0.154-1.521-0.277-3.042-0.377-4.564c-0.484-7.323-0.38-14.698-0.027-22.415
														l0.06-1.261c0.007-0.12,0.014-0.24,0.017-0.364c0.014-0.233,0.027-0.467,0.037-0.701
														c0.113-2.158,0.24-4.343,0.38-6.565c0.013-0.224,0.027-0.451,0.043-0.677v-0.003c0.23-3.76,0.49-7.616,0.741-11.609
														c0.684-10.819,3.656-18.391,8.754-21.791c0.23-0.153,0.464-0.297,0.7-0.43c0,0,0,0,0.003,0
														c1.238-0.711,2.589-1.188,4.057-1.421c2.635-0.417,4.881-1.064,6.735-1.771c0.774-0.294,1.481-0.597,2.122-0.901
														c0.267-0.124,0.517-0.247,0.761-0.374c2.589-1.318,4.053-2.505,4.053-2.505h17.897
														c1.538,2.245,3.479,3.656,5.568,4.657c0.23,0.107,0.464,0.214,0.704,0.317c0.35,0.154,0.704,0.294,1.061,0.424
														c0.841,0.317,1.695,0.587,2.546,0.837c0.237,0.07,0.474,0.137,0.71,0.203c5.037,1.441,9.781,2.435,10.969,8.393
														c0.57,2.866-0.507,7.539-1.391,15.099c-0.033,0.294-0.067,0.587-0.1,0.891c-0.154,1.368-0.297,2.826-0.42,4.383
														c-0.023,0.264-0.043,0.527-0.067,0.797c-0.29,3.913-0.46,8.413-0.36,13.594c0.027,1.471,0.08,2.999,0.154,4.58
														c0.07,1.481,0.163,3.012,0.28,4.597c0.11,1.474,0.243,2.996,0.397,4.557c0.137,1.371,0.29,2.776,0.467,4.217
														c0.11,0.908,0.224,1.825,0.35,2.762v0.003c0.037,0.257,0.07,0.514,0.11,0.774c0.043,0.33,0.09,0.667,0.14,1.004
														c0.19,1.328,0.43,2.939,0.714,4.75c0.033,0.22,0.07,0.447,0.104,0.674c0.337,2.142,0.724,4.54,1.148,7.069
														c0.04,0.227,0.08,0.454,0.117,0.684c0.821,4.834,1.771,10.105,2.749,14.975c0.057,0.294,0.117,0.584,0.177,0.874
														C251.96,232.95,252.68,236.209,253.371,238.915z"/>
												</g>
											</g>
										</g>
									</g>
								</g>
							</g>
						</g>
					</g>
					<g>
						<g>
							<path style="fill:#1F294A;" d="M219.852,141.243c-7.15,0-12.646-7.782-12.881-8.12c-0.158-0.227-0.102-0.538,0.125-0.696
								c0.227-0.158,0.538-0.102,0.697,0.125c0.056,0.08,5.647,8.002,12.468,7.681c6.713-0.312,8.292-5.636,8.356-5.862
								c0.075-0.265,0.348-0.421,0.617-0.346c0.265,0.074,0.421,0.349,0.347,0.615c-0.017,0.062-1.819,6.247-9.273,6.593
								C220.155,141.24,220.003,141.243,219.852,141.243z"/>
						</g>
					</g>
					<g>
						<g>
							<path style="fill:#1F294A;" d="M229.823,232.956c-6.719,0-14.061-1.902-21.797-5.695
								c-10.616-5.205-18.346-12.206-18.423-12.277c-0.204-0.186-0.219-0.503-0.033-0.707c0.187-0.204,0.503-0.219,0.707-0.032
								c0.076,0.069,7.716,6.987,18.21,12.128c9.626,4.715,23.699,8.858,36.082,1.818c0.24-0.136,0.545-0.053,0.682,0.188
								c0.137,0.24,0.053,0.546-0.188,0.682C240.494,231.66,235.37,232.956,229.823,232.956z"/>
						</g>
					</g>
					<g>
						<g>
							<path style="fill:#1F294A;" d="M231.307,227.292c-0.003,0-0.006,0-0.009,0c-10.498-0.169-19.067-14.158-19.426-14.753
								c-0.143-0.237-0.067-0.544,0.17-0.687c0.235-0.143,0.544-0.067,0.687,0.169c0.085,0.141,8.643,14.11,18.586,14.27
								c0.276,0.005,0.496,0.232,0.492,0.508C231.802,227.073,231.579,227.292,231.307,227.292z"/>
						</g>
					</g>
					<g>
						<g>
							<g>
								<path style="fill:#1F294A;" d="M191.618,204.671c-1.464,2.258-4.13,3.87-7.606,3.87c-1.418,0-2.972-0.267-4.637-0.871
									c-0.027-0.257-0.053-0.504-0.077-0.741c5.548,2.125,9.818,0.38,11.759-2.622c1.868-2.889,1.324-6.292-1.318-8.273
									c-3.586-2.689-2.639-4.891-1.635-7.216c0.987-2.288,2.008-4.654-0.44-8.206c-1.428-2.072-3.199-3.313-5.261-3.683
									c-1.254-0.227-2.482-0.103-3.563,0.157c0.014-0.233,0.027-0.467,0.037-0.701c1.104-0.247,2.349-0.347,3.64-0.113
									c2.245,0.4,4.163,1.735,5.694,3.96c2.659,3.86,1.464,6.625,0.507,8.85c-0.974,2.258-1.745,4.043,1.421,6.419
									C193.416,197.955,193.363,201.972,191.618,204.671z"/>
							</g>
						</g>
						<g>
							<g>
								<path style="fill:#1F294A;" d="M214.851,180.869c-5.658-2.162-5.675-5.688-5.688-9.768c-0.017-3.9-0.037-8.32-4.904-12.36
									c-0.1-0.083-0.2-0.163-0.3-0.243c-1.878-1.521-4.374-1.611-6.358-0.237c-1.975,1.371-2.759,3.736-1.995,6.021
									c1.291,3.863,1.428,9.227,0.394,15.512c-0.697,4.247,0.454,8.076,3.326,11.072c3.723,3.883,9.978,5.908,14.645,5.908
									c0.584,0,1.144-0.033,1.672-0.097c3.459-0.42,6.265-3.139,6.675-6.469C222.794,186.33,220.002,182.84,214.851,180.869z
									 M221.653,190.13c-0.37,3.029-2.932,5.504-6.091,5.888c-4.567,0.554-11.709-1.395-15.753-5.611
									c-2.762-2.882-3.823-6.415-3.153-10.505c0.471-2.866,0.707-5.501,0.707-7.903c0-3.032-0.377-5.681-1.124-7.926
									c-0.667-1.998,0.017-4.063,1.745-5.264c0.818-0.567,1.731-0.847,2.646-0.847c1.024,0,2.041,0.354,2.912,1.054
									c0.097,0.08,0.193,0.16,0.29,0.24c4.631,3.84,4.647,7.91,4.664,11.846c0.017,4.146,0.03,8.066,6.118,10.391
									C219.458,183.348,222.09,186.574,221.653,190.13z"/>
							</g>
						</g>
						<g>
							<g>
								<path style="fill:#1F294A;" d="M237.014,160.065c-4.177-0.847-7.73-3.876-8.116-6.021c-0.113-0.624,0.07-1.074,0.56-1.381
									c4.413-2.749,5.705-6.275,4.931-13.477c-0.184-1.721,0.217-3.156,1.188-4.26c0.047-0.05,0.09-0.1,0.137-0.15
									c-0.237-0.067-0.473-0.133-0.71-0.203c-1.048,1.241-1.478,2.816-1.278,4.687c0.741,6.892-0.47,10.251-4.62,12.837
									c-0.717,0.447-1.024,1.181-0.864,2.068c0.424,2.359,4.08,5.631,8.64,6.555c0.661,0.133,1.461,0.24,2.352,0.24
									c1.758,0,3.87-0.407,5.958-1.801c0.033-0.303,0.067-0.597,0.1-0.891C242.185,160.576,238.959,160.459,237.014,160.065z"/>
							</g>
						</g>
						<g>
							<g>
								<path style="fill:#1F294A;" d="M218.696,149.76c-1.604-2.008-4.02-3.036-6.468-2.759c-2.082,0.24-3.436,1.328-3.913,3.146
									c-0.621,2.365,1.001,3.329,2.569,4.26c1.785,1.064,3.633,2.162,3.449,5.311c-0.18,3.026,1.094,5.254,3.406,5.965
									c0.454,0.137,0.914,0.207,1.361,0.207c1.344,0,2.579-0.601,3.199-1.645C224.785,160.075,221.409,153.147,218.696,149.76z
									 M221.725,163.905c-0.66,1.111-2.292,1.601-3.793,1.138c-1.995-0.611-3.092-2.589-2.936-5.284
									c0.21-3.556-1.998-4.867-3.773-5.925c-1.601-0.951-2.759-1.638-2.265-3.52c0.407-1.548,1.535-2.442,3.346-2.649
									c0.227-0.027,0.457-0.04,0.687-0.04c1.958,0,3.896,0.941,5.184,2.552C220.775,153.423,224.037,160.022,221.725,163.905z"/>
							</g>
						</g>
						<g>
							<g>
								<path style="fill:#1F294A;" d="M234.936,176.649c-1.258-3.566-4.837-5.831-8.507-5.394c-2.185,0.26-3.496,1.334-3.793,3.109
									c-0.41,2.472,1.528,3.806,3.403,5.097c2.202,1.518,4.28,2.949,2.936,6.168c-1.161,2.779-1.077,4.897,0.22,5.811
									c0.434,0.304,0.961,0.45,1.548,0.45c1.354,0,3.032-0.781,4.607-2.215c1.051-0.957,1.451-2.505,1.451-4.31
									C236.801,182.68,235.91,179.414,234.936,176.649z M234.899,189.182c-1.988,1.815-4.173,2.519-5.317,1.711
									c-1.024-0.717-1.021-2.542,0.007-5.004c1.555-3.72-0.958-5.451-3.173-6.976c-1.781-1.228-3.463-2.385-3.119-4.443
									c0.247-1.491,1.298-2.325,3.209-2.555c0.28-0.033,0.557-0.05,0.834-0.05c1.531,0,3.006,0.5,4.234,1.378
									c1.228,0.878,2.202,2.128,2.732,3.63C236.517,183.144,236.727,187.514,234.899,189.182z"/>
							</g>
						</g>
						<g>
							<g>
								<path style="fill:#1F294A;" d="M248.207,212.921c-3.169-0.357-3.933,1.545-4.807,3.716c-0.781,1.928-1.661,4.12-4.46,5.431
									c-3.416,1.601-7.085-0.057-8.947-2.522c-1.388-1.842-2.128-4.657-0.047-7.046c0.974-1.121,1.415-2.118,1.344-3.052
									c-0.103-1.335-1.238-2.295-2.338-3.223c-1.424-1.204-2.772-2.342-2.325-4.267c0.37-1.588,1.458-2.715,3.066-3.179
									c0.567-0.163,1.164-0.24,1.781-0.24c2.505,0,5.338,1.294,7.643,3.58c2.792,2.775,5.791,3.579,7.943,3.733
									c-0.033-0.227-0.07-0.454-0.104-0.674c-2.011-0.17-4.777-0.954-7.372-3.533c-3.039-3.016-6.992-4.393-10.075-3.506
									c-1.851,0.534-3.106,1.835-3.529,3.67c-0.541,2.322,1.097,3.706,2.542,4.927c1.041,0.877,2.022,1.708,2.102,2.766
									c0.057,0.744-0.327,1.581-1.181,2.559c-1.961,2.252-1.951,5.274,0.02,7.886c1.464,1.945,3.97,3.423,6.659,3.423
									c1.024,0,2.072-0.214,3.102-0.697c3.036-1.424,4.01-3.843,4.794-5.788c0.877-2.175,1.481-3.676,4.307-3.279
									C248.287,213.374,248.246,213.148,248.207,212.921z"/>
							</g>
						</g>
						<g>
							<g>
								<path style="fill:#1F294A;" d="M220.948,206.949c-0.017-0.137-0.444-3.389-2.692-4.894c-1.158-0.777-2.579-0.941-4.22-0.49
									c-3.296,0.904-4.994,0.077-6.962-0.884c-1.294-0.627-2.755-1.341-4.81-1.571c-2.876-0.324-4.554,1.758-4.901,3.826
									c-0.38,2.285,0.747,5.087,4.123,5.838c3.039,0.674,5.144-0.097,6.836-0.714c1.741-0.637,3.003-1.097,4.61,0.1
									c1.575,1.171,3.323,1.805,4.797,1.805c0.66,0,1.261-0.127,1.771-0.387c0.951-0.487,1.468-1.408,1.451-2.592
									C220.951,206.973,220.948,206.963,220.948,206.949z M219.197,208.984c-1.411,0.717-3.823,0.16-5.865-1.361
									c-0.867-0.644-1.661-0.874-2.435-0.874c-0.928,0-1.828,0.327-2.806,0.684c-1.691,0.62-3.613,1.321-6.462,0.687
									c-2.949-0.654-3.94-3.089-3.606-5.074c0.293-1.768,1.721-3.546,4.163-3.276c1.942,0.22,3.29,0.877,4.594,1.511
									c2.001,0.977,3.893,1.898,7.432,0.927c1.444-0.397,2.679-0.264,3.67,0.397c1.918,1.284,2.365,4.16,2.402,4.407
									C220.291,207.937,219.914,208.617,219.197,208.984z"/>
							</g>
						</g>
						<g>
							<g>
								<path style="fill:#1F294A;" d="M188.175,229.457c1.381-1.374,3.103-3.082,2.085-6.515c-0.501-1.688-1.491-2.922-2.949-3.673
									c-2.125-1.098-4.794-0.938-6.665-0.611c0.026,0.22,0.053,0.444,0.083,0.667c0.757-0.13,1.651-0.237,2.582-0.237
									c1.255,0,2.569,0.194,3.693,0.774c1.291,0.664,2.169,1.765,2.615,3.269c0.904,3.049-0.53,4.473-1.915,5.851
									c-1.508,1.501-2.932,2.916-0.11,5.931c2.782,2.972,2.736,6.922,1.084,9.02c-0.857,1.088-2.035,1.618-3.416,1.575
									c0.057,0.177,0.117,0.343,0.173,0.504c0.104,0.05,0.204,0.1,0.307,0.147c1.385-0.083,2.579-0.694,3.46-1.811
									c1.828-2.322,1.905-6.655-1.121-9.891C185.704,231.916,186.688,230.938,188.175,229.457z"/>
							</g>
						</g>
						<g>
							<g>
								<path style="fill:#1F294A;" d="M243.836,239.255c-1.678-1.061-3.833-1.171-6.408-0.327
									c-3.356,1.104-4.657,2.923-5.701,4.384c-1.518,2.118-2.432,3.399-8.69,0.961c-6.742-2.626-11.506-1.141-13.08,1.351
									c-1.178,1.865-0.751,4.21,1.121,6.442c0.303,0.01,0.604,0.02,0.907,0.023c-2.002-2.138-2.549-4.383-1.461-6.108
									c0.884-1.401,2.919-2.435,5.852-2.435c1.815,0,3.976,0.397,6.422,1.351c6.425,2.502,7.726,1.244,9.474-1.198
									c1.037-1.454,2.218-3.099,5.368-4.137c2.372-0.777,4.337-0.694,5.838,0.253c1.798,1.134,2.499,3.249,2.736,4.253
									c0.204-0.113,0.404-0.23,0.604-0.35C246.519,242.558,245.738,240.459,243.836,239.255z"/>
							</g>
						</g>
						<g>
							<g>
								<path style="fill:#1F294A;" d="M205.896,237.671c-2.155-0.891-1.995-1.511-1.641-2.872c0.284-1.104,0.674-2.622-0.097-4.804
									c-0.434-1.234-1.204-2.088-2.288-2.532c-2.582-1.061-6.022,0.584-6.165,0.654c-0.02,0.007-0.037,0.02-0.053,0.03
									c-2.963,2.192-2.559,5.738-1.681,9.247c1.134,4.54,4.007,7.192,8.086,7.469c0.113,0.01,0.23,0.013,0.344,0.013
									c2.635,0,5.034-2.015,5.484-3.943C208.215,239.519,207.491,238.328,205.896,237.671z M207.234,240.783
									c-0.4,1.711-2.736,3.576-5.134,3.416c-4.827-0.33-6.732-3.97-7.482-6.969c-1.118-4.47-0.711-6.946,1.404-8.527
									c0.32-0.15,3.396-1.524,5.594-0.624c0.901,0.37,1.545,1.087,1.915,2.138c0.701,1.988,0.354,3.333,0.077,4.414
									c-0.407,1.578-0.527,2.599,2.035,3.656C206.94,238.821,207.491,239.685,207.234,240.783z"/>
							</g>
						</g>
						<g>
							<g>
								<path style="fill:#1F294A;" d="M251.196,240.656c-1.591-1.208-2.455-2.682-2.565-4.39c-0.164-2.555,1.374-5.151,2.619-6.812
									c-0.06-0.29-0.12-0.581-0.177-0.874c-1.348,1.681-3.303,4.677-3.106,7.729c0.117,1.882,1.048,3.503,2.756,4.817
									c0.184-0.137,0.367-0.273,0.544-0.417C251.242,240.693,251.219,240.673,251.196,240.656z"/>
							</g>
						</g>
					</g>
				</g>
				<g>
					<g>
						<path style="fill:#F5EFE0;" d="M224.519,160.69c1.321-0.254,2.442-0.968,3.34-2.129c5.127-6.628,1.301-26.384,1.135-27.222
							c-0.078-0.395-0.461-0.652-0.856-0.576c-0.001,0-0.002,0-0.003,0.001c-0.396,0.078-0.654,0.463-0.576,0.859
							c0.039,0.199,3.866,19.939-0.857,26.044c-0.807,1.042-1.798,1.584-3.028,1.657c-7.789,0.46-15.504-20.993-17.819-29.298
							c-0.108-0.389-0.511-0.617-0.901-0.508c-0.389,0.108-0.617,0.512-0.508,0.901c0.021,0.077,2.174,7.747,5.539,15.242
							c4.624,10.302,9.259,15.39,13.775,15.123C224.02,160.769,224.273,160.738,224.519,160.69z"/>
					</g>
				</g>
				<g>
					<g>
						<g>
							<g>
								<path style="fill:#1F271D;" d="M210.446,101.007l-2.702-11.226c0,0-2.999-3.751,1.207-6.699
									c4.206-2.948,8.716-0.51,8.716-0.51s1.034-4.773,4.673-5.6c3.639-0.826,5.463,3.825,5.463,3.825s2.148-4.43,6.104-3.717
									c3.956,0.713,3.008,4.988,3.008,4.988s4.62-3.098,7.608-0.46c2.988,2.638-1.477,7.769-1.477,7.769s4.234,1.144,3.616,4.234
									c-0.618,3.091-5.195,3.671-5.195,3.671l-2.92,10.969L210.446,101.007z"/>
								<g>
									<g>
										<g>
											<g>
												<g>
													<g>
														<g>
															<g>
																<path style="fill:#853922;" d="M232.062,109.572c0,0,2.465-4.534,6.184-2.673
																	c3.719,1.862,1.335,14.974-6.069,13.117L232.062,109.572z"/>
															</g>
														</g>
													</g>
												</g>
											</g>
										</g>
									</g>
								</g>
								<g>
									<g>
										<g>
											<g>
												<g>
													<g>
														<g>
															<g>
																<path style="fill:#A75436;" d="M207.612,128.915c0,0-1.321,1.408,5.422,5.163c3.558,1.981,8.42,2.101,11.046,1.305
																	c1.068-0.322,1.704-0.614,1.704-0.614c0.155-5.77,1.97-9.099,2.449-9.882c0.074-0.119,0.115-0.179,0.115-0.179
																	L211.79,110.77L207.612,128.915z"/>
															</g>
														</g>
													</g>
												</g>
											</g>
										</g>
									</g>
								</g>
								<g>
									<g>
										<g>
											<g>
												<g>
													<g>
														<g>
															<g>
																<path style="fill:#1F271D;" d="M212.668,118.808c0,0,1.508,13.541,11.412,16.574
																	c1.068-0.322,1.704-0.614,1.704-0.614c0.155-5.77,1.97-9.099,2.449-9.882L212.668,118.808z"/>
															</g>
														</g>
													</g>
												</g>
											</g>
										</g>
									</g>
								</g>
								<g>
									<g>
										<g>
											<g>
												<g>
													<g>
														<g>
															<path style="fill:#A75436;" d="M218.397,127.076c7.417,3.318,14.384,1.417,16.674-5.071
																c0.554-1.564,1.181-3.869,1.773-6.285c0.006-0.025,0.012-0.048,0.019-0.074c0.125-0.513,0.249-1.034,0.374-1.552
																c0.09-0.376,0.177-0.752,0.262-1.125c1-4.323,1.785-8.268,1.785-8.268c1.374-10.993-8.324-17.457-17.782-15.358
																c-9.455,2.101-9.214,15.924-10.668,22.309C209.378,118.038,212.036,124.231,218.397,127.076z"/>
														</g>
													</g>
												</g>
											</g>
										</g>
									</g>
								</g>
								<g>
									<g>
										<path style="fill:#F5EFE0;" d="M231.177,115.998c0,0-4.709-1.118-7.859-2.708c0,0-1.605,5.163,2.912,5.982
											C229.856,119.929,231.177,115.998,231.177,115.998z"/>
									</g>
								</g>
								<g>
									<g>
										<g>
											<path style="fill:#1F271D;" d="M225.64,106.436c-0.199,0.739-0.712,1.244-1.145,1.127
												c-0.433-0.117-0.624-0.811-0.425-1.55c0.199-0.739,0.711-1.244,1.145-1.127
												C225.648,105.003,225.839,105.697,225.64,106.436z"/>
										</g>
									</g>
								</g>
								<g>
									<g>
										<g>
											<path style="fill:#1F271D;" d="M234.14,108.563c-0.199,0.739-0.711,1.244-1.145,1.127
												c-0.434-0.117-0.624-0.81-0.425-1.549c0.199-0.739,0.712-1.244,1.145-1.127
												C234.149,107.13,234.339,107.824,234.14,108.563z"/>
										</g>
									</g>
								</g>
								<g>
									<path style="fill:#853922;" d="M226.576,120.696c0.049,0.041,0.088,0.096,0.111,0.16c0.072,0.198-0.03,0.416-0.228,0.488
										c-0.068,0.025-1.692,0.59-3.176-0.949c-0.146-0.152-0.142-0.393,0.01-0.539c0.152-0.146,0.392-0.143,0.539,0.01
										c1.143,1.187,2.356,0.766,2.368,0.761C226.332,120.579,226.475,120.61,226.576,120.696z"/>
								</g>
								<g>
									<g>
										<g>
											<path style="fill:#1F271D;" d="M223.438,103.652c-2.305-0.132-2.288-2.632,0.011-3.311
												c1.049-0.31,2.162-0.516,3.176-0.247c2.879,0.764,2.414,2.814,0.751,3.243
												C226.58,103.543,224.762,103.728,223.438,103.652z"/>
										</g>
									</g>
								</g>
								<g>
									<g>
										<g>
											<path style="fill:#1F271D;" d="M236.341,106.09c2.217,0.645,3.035-1.718,1.095-3.125
												c-0.885-0.642-1.866-1.208-2.911-1.292c-2.969-0.241-3.215,1.847-1.791,2.806
												C233.415,104.937,235.067,105.719,236.341,106.09z"/>
										</g>
									</g>
								</g>
								<g>
									<g>
										<g>
											<g>
												<g>
													<g>
														<g>
															<g>
																<path style="fill:#853922;" d="M235.939,115.619c0.309,0.051,0.614,0.084,0.906,0.101
																	c0.006-0.025,0.012-0.048,0.019-0.074c0.125-0.513,0.249-1.034,0.374-1.552c0.09-0.376,0.177-0.752,0.262-1.125
																	c-0.339-0.099-0.704-0.185-1.086-0.246c-1.986-0.326-3.699,0.059-3.831,0.858
																	C232.451,114.38,233.954,115.293,235.939,115.619z"/>
															</g>
														</g>
													</g>
												</g>
											</g>
										</g>
									</g>
								</g>
								<g>
									<g>
										<g>
											<g>
												<g>
													<g>
														<g>
															<g>
																<path style="fill:#1F271D;" d="M229.24,114.698c0.06,0.01,0.124,0.004,0.185-0.019
																	c2.043-0.781,2.531-1.334,2.608-1.438c0.072-0.096,0.091-0.223,0.05-0.336l-1.608-4.43
																	c-0.005-0.013-0.01-0.026-0.017-0.039c-0.388-0.771-0.169-2.12,0.135-3.674c0.038-0.194-0.089-0.382-0.282-0.42
																	c-0.197-0.035-0.382,0.089-0.42,0.282c-0.327,1.674-0.559,3.14-0.082,4.113l1.521,4.188
																	c-0.235,0.184-0.836,0.578-2.16,1.084c-0.185,0.071-0.277,0.277-0.206,0.462
																	C229.01,114.595,229.118,114.678,229.24,114.698z"/>
															</g>
														</g>
													</g>
												</g>
											</g>
										</g>
									</g>
								</g>
								<g>
									<g>
										<g>
											<g>
												<g>
													<g>
														<g>
															<g>
																<path style="fill:#853922;" d="M215.936,109.224c-0.131,0.799,1.372,1.712,3.357,2.037
																	c1.985,0.326,3.701-0.059,3.831-0.859c0.131-0.799-1.372-1.711-3.357-2.037
																	C217.782,108.04,216.067,108.425,215.936,109.224z"/>
															</g>
														</g>
													</g>
												</g>
											</g>
										</g>
									</g>
								</g>
								<g>
									<g>
										<g>
											<g>
												<path style="fill:#1F271D;" d="M212.649,100.391c0.005,0.258,0.026,0.409,0.026,0.409s1.61,1.067,1.63,4.717
													l2.348,0.464c0,0,1.576-2.66,1.798-7.573c0.02-0.394,0.095-0.768,0.217-1.128c1.474-4.182,9.837-6.274,14.779-4.041
													c5.359,2.426,5.9,7.966,5.9,7.966s0.167,2.027-0.238,4.23c0.774-2.171,1.977-6.25-0.608-11.238
													c-3.861-7.472-14.876-9.775-20.76-4.568C212.779,94.02,212.581,98.952,212.649,100.391z"/>
											</g>
										</g>
									</g>
								</g>
								<path style="fill:#853922;" d="M212.649,100.391c0.005,0.258,0.026,0.409,0.026,0.409s1.61,1.067,1.63,4.717l2.348,0.464
									c0,0,1.576-2.66,1.798-7.573c0.02-0.394,0.095-0.768,0.217-1.128L212.649,100.391z"/>
								<g>
									<g>
										<g>
											<g>
												<g>
													<g>
														<path style="fill:#1F271D;" d="M222.808,93.524c0,0,4.284-0.582,5.993,0.621c1.708,1.204,4.212,2.843,6.635,1.857
															c2.423-0.986,3.721,3.993,3.721,3.993s-0.717-8.478-7.586-8.418C224.702,91.637,224.877,91.03,222.808,93.524z"/>
													</g>
												</g>
											</g>
										</g>
									</g>
								</g>
								<g>
									<g>
										<g>
											<g>
												<g>
													<g>
														<g>
															<g>
																<path style="fill:#A75436;" d="M214.433,103.255c0,0-1.385-4.104-5.448-3.215
																	c-4.063,0.889-4.981,14.184,2.653,14.207L214.433,103.255z"/>
															</g>
														</g>
													</g>
												</g>
											</g>
										</g>
									</g>
								</g>
								<path style="fill:#F5EFE0;" d="M209.18,111.688c0,0.507,0.411,0.919,0.919,0.919c0.508,0,0.919-0.411,0.919-0.919
									c0-0.507-0.411-0.919-0.919-0.919C209.591,110.77,209.18,111.181,209.18,111.688z"/>
								<g>
									<g>
										<g>
											<g>
												<g>
													<g>
														<g>
															<g>
																<g>
																	<path style="fill:#1F271D;" d="M211.255,109.373c0.025,0.004,0.051,0.006,0.077,0.004
																		c0.197-0.01,0.349-0.179,0.338-0.376c-0.009-0.168-0.258-4.131-3.508-5.465c-0.182-0.075-0.392,0.012-0.467,0.195
																		c-0.075,0.183,0.012,0.392,0.195,0.466c2.836,1.164,3.063,4.805,3.065,4.841
																		C210.965,109.21,211.093,109.346,211.255,109.373z"/>
																</g>
															</g>
														</g>
													</g>
												</g>
											</g>
										</g>
									</g>
									<g>
										<g>
											<g>
												<g>
													<g>
														<g>
															<g>
																<g>
																	<path style="fill:#1F271D;" d="M208.4,107.482c0.089,0.015,0.183-0.004,0.262-0.06
																		c0.008-0.006,0.839-0.583,1.797-1.129c0.172-0.098,0.231-0.316,0.133-0.488c-0.098-0.172-0.316-0.231-0.488-0.134
																		c-0.987,0.563-1.816,1.139-1.851,1.163c-0.162,0.113-0.202,0.336-0.089,0.498
																		C208.222,107.416,208.309,107.467,208.4,107.482z"/>
																</g>
															</g>
														</g>
													</g>
												</g>
											</g>
										</g>
									</g>
								</g>
							</g>
						</g>
					</g>
				</g>
			</g>
			<g>
				<g>
					<g>
						<path style="fill:#A75436;" d="M250.47,179.01c-1.003-3.91-4.985-6.267-8.897-5.264c-2.712,0.698-5.233,1.467-7.718,2.271
							c-2.483,0.798-4.913,1.626-7.322,2.456c-1.926,0.66-3.837,1.328-5.737,1.992c-0.645,0.223-1.288,0.448-1.931,0.671
							c-2.209,0.771-4.407,1.531-6.602,2.266c-4.703,1.601-9.392,3.106-14,4.383c-2.302,0.636-4.583,1.208-6.803,1.663
							c-2.211,0.455-4.383,0.78-6.273,0.899c-0.457,0.027-0.899,0.04-1.305,0.035l0.009-0.088l0.084-0.778
							c0.121-1.04,0.283-2.101,0.477-3.172c0.393-2.143,0.899-4.332,1.504-6.532c0.605-2.2,1.31-4.411,2.067-6.627
							c0.762-2.211,1.604-4.42,2.481-6.627c0.44-1.1,0.899-2.198,1.367-3.294c0.462-1.098,0.941-2.189,1.431-3.276
							c0.492-1.085,0.983-2.169,1.491-3.238l0.762-1.593l0.38-0.777l0.349-0.698l0.141-0.281c2.138-4.305,0.532-9.573-3.711-11.935
							c-4.369-2.432-9.883-0.862-12.315,3.51l-0.543,0.976l-0.493,0.906c-0.323,0.601-0.636,1.197-0.943,1.798
							c-0.612,1.197-1.21,2.395-1.782,3.603c-0.572,1.208-1.133,2.423-1.679,3.645c-0.541,1.224-1.065,2.456-1.575,3.698
							c-1.027,2.481-1.975,5.005-2.854,7.574c-0.886,2.569-1.681,5.191-2.381,7.877c-0.7,2.686-1.308,5.436-1.745,8.283
							c-0.223,1.423-0.406,2.869-0.541,4.345l-0.091,1.111l-0.071,1.124l-0.046,1.135l-0.015,0.574l-0.007,0.285l-0.002,0.157v0.221
							c0,1.173,0.095,2.47,0.406,3.883c0.322,1.42,0.866,2.964,1.76,4.44c0.872,1.476,2.083,2.823,3.366,3.83
							c0.643,0.517,1.297,0.937,1.948,1.31c0.647,0.362,1.286,0.663,1.906,0.912c1.239,0.497,2.385,0.793,3.457,1.001
							c1.074,0.205,2.061,0.311,3,0.369c1.873,0.108,3.545,0.031,5.129-0.113c1.579-0.15,3.07-0.371,4.506-0.641
							c1.438-0.267,2.825-0.574,4.184-0.906c2.712-0.667,5.31-1.429,7.857-2.24c4.252-1.361,8.354-2.869,12.392-4.422
							c0.51-0.194,1.021-0.391,1.529-0.588c0.276-0.106,0.55-0.214,0.824-0.32c4.784-1.891,9.494-3.826,14.137-5.741
							c2.324-0.952,4.632-1.893,6.912-2.796c2.277-0.895,4.544-1.769,6.688-2.485l0.099-0.033
							C249.326,186.543,251.428,182.743,250.47,179.01z"/>
					</g>
				</g>
				<g>
					<g>
						<path style="fill:#A75436;" d="M263.929,185.632c-0.731-4.851-1.938-10.386-3.224-15.633
							c-2.543-10.363-5.407-19.592-5.585-20.167c-1.488-4.773-6.563-7.438-11.339-5.952c-0.822,0.256-1.584,0.618-2.27,1.07
							c0.065,1.491,0.221,3.257,0.505,5.35c0.887,6.531,0.471,15.904,0.189,20.426c0.23,0.89,0.46,1.792,0.69,2.706
							c0.859,3.45,1.684,7.032,2.337,10.397c-1.224,0.03-2.857,0.004-5.01-0.141c-4.878-0.323-10.705-1.109-16.874-1.94
							c-12.704-1.71-25.841-3.478-35.559-1.942c-4.94,0.781-8.312,5.42-7.531,10.36c0.707,4.461,4.556,7.644,8.935,7.644
							c0.471,0,0.948-0.037,1.425-0.113c7.102-1.124,19.432,0.536,30.313,2.003c8.974,1.206,16.761,2.257,23.216,2.257
							c7.108,0,12.599-1.274,16.273-5.006C263.337,193.985,264.585,189.967,263.929,185.632z"/>
					</g>
				</g>
				<g>
					<g>
						<path style="fill:#3D4C83;" d="M188.543,174.474c1.199-4.423,2.65-8.887,4.353-13.142c1.533-3.83,3.698-7.359,5.517-11.052
							c0.046-0.094,0.112-0.146,0.185-0.168c0.924-2.289,1.797-4.597,2.398-6.993c-2.678-4.671-7.976-6.03-7.976-6.03
							s-9.104-1.083-14.274,5.723c-0.523,0.688-1.061,1.473-1.608,2.331c-0.135,0.211-0.271,0.427-0.406,0.645
							c-3.631,5.881-7.514,14.589-9.158,18.397c-0.111,0.258-0.211,0.495-0.302,0.705c-0.323,0.758-0.503,1.194-0.503,1.194
							s12.48,7.664,22.242,9.717L188.543,174.474z"/>
					</g>
				</g>
				<g>
					<g>
						<path style="fill:#1F294A;" d="M167.272,164.889c0.389,0.065,0.783,0.096,1.174,0.096s0.779-0.032,1.157-0.095
							c2.921-0.486,4.772-2.602,4.716-5.391c-0.061-3.069,2.463-3.854,4.903-4.61c2.14-0.666,4.354-1.354,4.338-3.668
							c-0.02-3.082-3.759-5.061-6.422-6.079c-0.135,0.211-0.271,0.427-0.406,0.645c2.496,0.94,6.07,2.752,6.086,5.437
							c0.013,1.766-1.762,2.318-3.816,2.956c-2.576,0.799-5.497,1.706-5.424,5.333c0.058,2.912-2.077,4.308-4.095,4.644
							c-0.618,0.102-1.269,0.113-1.908,0.026C167.463,164.442,167.363,164.68,167.272,164.889z"/>
					</g>
				</g>
				<g>
					<path style="fill:#1F294A;" d="M189.405,171.184c0.148,0,0.287-0.089,0.345-0.234l7.414-18.724
						c0.076-0.19-0.018-0.406-0.208-0.481c-0.191-0.075-0.406,0.018-0.481,0.208l-7.414,18.724c-0.075,0.19,0.018,0.406,0.208,0.481
						C189.313,171.176,189.36,171.184,189.405,171.184z"/>
				</g>
				<g>
					<path style="fill:#1F294A;" d="M194.793,157.578c0.071,0,0.144-0.021,0.207-0.064l3.788-2.564
						c0.17-0.115,0.214-0.345,0.099-0.515c-0.115-0.17-0.346-0.214-0.515-0.099l-3.788,2.564c-0.17,0.115-0.214,0.345-0.099,0.515
						C194.557,157.521,194.674,157.578,194.793,157.578z"/>
				</g>
				<g>
					<g>
						<path style="fill:#A75436;" d="M189.405,170.813l-1.115,4.826c0,0-3.377-1.031-6.288-1.93
							c-1.176,2.41-2.682,4.716-3.827,6.956c-1.273,2.491-2.503,5.002-3.733,7.513c5.139,2.405,11.261,4.865,13.803,5.283
							c4.547,0.748,6.633-11.87,6.633-11.87S192.831,172.386,189.405,170.813z"/>
					</g>
				</g>
				<g>
					<g>
						<path style="fill:#853922;" d="M188.166,175.579c-0.289-0.088-0.428-0.108-0.722-0.198c-1.343,5.901-2.902,12.66-4.242,18.228
							c-0.056,0.238,0.088,0.477,0.326,0.533c0.224,0.054,0.448-0.072,0.521-0.285c0.004-0.013,0.009-0.027,0.012-0.041
							c1.344-5.586,2.888-12.28,4.233-18.194C188.266,175.602,188.227,175.597,188.166,175.579z"/>
					</g>
				</g>
				<g>
					<g>
						<path style="fill:#3D4C83;" d="M241.511,144.95c0.067,1.491,0.223,3.257,0.506,5.35c0.38,2.802,0.523,6.125,0.536,9.365
							c0.002,0.267,0.002,0.534,0.002,0.799c-0.007,4.024-0.198,7.839-0.349,10.261c-0.104,1.638-0.189,2.639-0.189,2.639
							c0.289,0.028,0.582,0.052,0.879,0.067c0.312,0.017,0.627,0.03,0.946,0.035c0.25,0.002,0.503,0.002,0.758-0.002
							c1.185-0.017,2.405-0.117,3.633-0.276c0.247-0.031,0.492-0.067,0.738-0.104c0.809-0.119,1.619-0.263,2.422-0.428
							c0.245-0.05,0.49-0.1,0.732-0.156c1.198-0.262,2.374-0.56,3.501-0.875c0.241-0.069,0.48-0.137,0.716-0.206
							c1.558-0.456,3.01-0.938,4.284-1.393c0.026-0.009,0.052-0.018,0.078-0.028c0.237-0.085,0.469-0.169,0.694-0.252
							c2.604-0.957,4.286-1.725,4.286-1.725s-3.034-9.072-6.506-16.817c-0.108-0.239-0.215-0.479-0.323-0.714
							c-1.265-2.769-2.112-3.503-3.347-5.348c-3.166-4.727-8.114-7.679-10.758-7.909c-0.297-0.026-0.569-0.041-0.814-0.048
							c-0.857-0.024-1.38,0.044-1.38,0.044S241.211,138.07,241.511,144.95z"/>
					</g>
				</g>
				<g>
					<path style="fill:#1F294A;" d="M244.926,173.429c0.133-0.065,0.218-0.207,0.206-0.363l-1.639-20.072
						c-0.017-0.204-0.196-0.356-0.4-0.34c-0.204,0.017-0.356,0.196-0.339,0.4l1.639,20.072c0.017,0.204,0.196,0.356,0.4,0.339
						C244.84,173.462,244.885,173.449,244.926,173.429z"/>
				</g>
				<g>
					<path style="fill:#1F294A;" d="M248.234,173.188c0.247-0.031,0.492-0.067,0.738-0.104c-0.096-1.116,0.009-2.357,0.352-3.427
						c0.376-1.176,1.17-2.589,2.813-2.656c0.625-0.028,1.167,0.186,1.658,0.645c0.931,0.87,1.493,2.454,1.832,3.978
						c0.241-0.069,0.48-0.137,0.716-0.206c-0.369-1.626-0.99-3.331-2.04-4.314c-0.636-0.595-1.376-0.879-2.198-0.846
						c-1.615,0.065-2.854,1.192-3.488,3.171C248.235,170.627,248.12,171.97,248.234,173.188z"/>
				</g>
				<g>
					<path style="fill:#1F294A;" d="M255.548,157.084c0.323,2.963,1.795,3.948,2.98,4.74c1.146,0.766,1.84,1.228,1.118,3.269
						c-0.636,1.805-0.28,3.592,0.981,4.933c0.026-0.009,0.052-0.018,0.078-0.028c0.237-0.085,0.469-0.169,0.694-0.252
						c-0.043-0.037-0.085-0.078-0.128-0.121c-1.163-1.161-1.491-2.682-0.925-4.286c0.914-2.585-0.213-3.338-1.406-4.134
						c-1.111-0.742-2.37-1.584-2.656-4.204c-0.275-2.53,1.231-4.462,2.895-5.797c-0.108-0.239-0.215-0.479-0.323-0.714
						C256.983,151.939,255.225,154.118,255.548,157.084z"/>
				</g>
				<g>
					<g>
						<path style="fill:#853922;" d="M217.072,199.129c-0.508,0.197-1.018,0.393-1.529,0.588
							c-13.761-2.79-31.768-5.308-31.974-5.337c-0.241-0.033-0.409-0.256-0.375-0.499c0.033-0.241,0.256-0.411,0.499-0.376
							C183.905,193.536,203.136,196.222,217.072,199.129z"/>
					</g>
				</g>
				<g>
					<g>
						<path style="fill:#853922;" d="M183.404,194.247c0.065,0.025,0.136,0.036,0.21,0.028c0.243-0.027,0.418-0.245,0.391-0.487
							c-0.179-1.622-1.193-3.7-1.236-3.787c-0.108-0.219-0.372-0.309-0.591-0.201c-0.219,0.108-0.309,0.373-0.202,0.591
							c0.01,0.02,0.99,2.027,1.151,3.493C183.145,194.053,183.257,194.189,183.404,194.247z"/>
					</g>
				</g>
				<g>
					<g>
						<path style="fill:#853922;" d="M248.846,183.879c-0.022,0.23-0.214,0.4-0.44,0.4c-0.013,0-0.029,0-0.042-0.002
							c-9.849-0.948-23.372-2.45-29.5-3.139c0.643-0.223,1.286-0.448,1.931-0.671c6.706,0.751,18.7,2.07,27.653,2.931
							C248.692,183.421,248.871,183.636,248.846,183.879z"/>
					</g>
				</g>
				<g>
					<g>
						<path style="fill:#853922;" d="M244.691,183.362c-0.069,0-0.14-0.016-0.205-0.051c-0.216-0.114-0.299-0.381-0.185-0.597
							c0.761-1.444,2.467-3.004,2.539-3.07c0.18-0.164,0.46-0.151,0.624,0.029c0.164,0.18,0.151,0.46-0.029,0.624
							c-0.017,0.015-1.664,1.523-2.352,2.828C245.003,183.276,244.85,183.362,244.691,183.362z"/>
					</g>
				</g>
			</g>
		</g>
	</g>
	<g>
		<g>
			<g>
				<path style="fill:#1F271D;" d="M523.387,313.41H369.176c-0.153,0-0.277-0.124-0.277-0.277v-0.686
					c0-4.272,3.463-7.736,7.736-7.736h139.295c4.272,0,7.735,3.463,7.735,7.736v0.686C523.665,313.286,523.54,313.41,523.387,313.41
					z"/>
			</g>
			<g>
				<path style="fill:#C47B38;" d="M498.082,294.575v10.296H394.481v-10.296c0-3.495,2.832-6.326,6.327-6.326h90.947
					C495.249,288.249,498.082,291.08,498.082,294.575z"/>
			</g>
			<g>
				<rect x="394.481" y="300.909" style="fill:#9E5022;" width="103.601" height="3.961"/>
			</g>
			<g>
				<rect x="443.635" y="106.172" style="fill:#1F271D;" width="5.293" height="175.747"/>
			</g>
			<g>
				<rect x="439.65" y="225.679" style="fill:#1F271D;" width="13.265" height="62.57"/>
			</g>
			<g>
				<rect x="439.65" y="274.591" style="fill:#514933;" width="13.265" height="1.705"/>
			</g>
			<g>
				<rect x="439.65" y="263.957" style="fill:#514933;" width="13.265" height="1.704"/>
			</g>
			<g>
				<rect x="439.65" y="253.323" style="fill:#514933;" width="13.265" height="1.705"/>
			</g>
			<g>
				
					<ellipse transform="matrix(0.923 -0.3848 0.3848 0.923 -50.7672 188.7937)" style="fill:#C47B38;" cx="446.323" cy="221.24" rx="9.137" ry="9.137"/>
			</g>
			<g>
				<path style="fill:#1F271D;" d="M411.278,114.154c-17.027,5.69-45.522,9.058-68.501,10.607v4.552h103.505v-22.852
					C446.281,106.462,437.599,105.359,411.278,114.154z"/>
			</g>
			<g>
				<path style="fill:#1F271D;" d="M550.547,124.811c-23.108-1.525-52.046-4.904-69.263-10.657
					c-26.321-8.796-35.003-7.693-35.003-7.693v22.852h104.266V124.811z"/>
			</g>
			<g>
				<path style="fill:#1F271D;" d="M438.099,107.57c0,0-0.167-10.341,8.182-24.417v59.838c0,0-4.26-0.693-6.822-13.677
					L438.099,107.57z"/>
			</g>
			<g>
				<path style="fill:#1F271D;" d="M454.464,107.57c0,0,0.167-10.341-8.183-24.417v59.838c0,0,4.26-0.693,6.822-13.677
					L454.464,107.57z"/>
			</g>
			<g>
				<g>
					<path style="fill:#514933;" d="M439.319,129.013c-0.132,0-0.251-0.09-0.284-0.223c-2.529-10.347-1.24-21.148-1.226-21.255
						c0.02-0.16,0.165-0.275,0.326-0.255c0.161,0.02,0.274,0.166,0.254,0.326c-0.013,0.107-1.289,10.805,1.214,21.045
						c0.038,0.157-0.058,0.316-0.215,0.354C439.365,129.01,439.342,129.013,439.319,129.013z"/>
				</g>
			</g>
			<g>
				<g>
					<path style="fill:#514933;" d="M453.313,129.013c-0.023,0-0.046-0.003-0.069-0.008c-0.157-0.038-0.253-0.197-0.215-0.354
						c2.504-10.244,1.227-20.938,1.214-21.045c-0.02-0.16,0.094-0.306,0.255-0.326c0.16-0.019,0.306,0.094,0.326,0.255
						c0.014,0.108,1.303,10.909-1.226,21.255C453.564,128.923,453.444,129.013,453.313,129.013z"/>
				</g>
			</g>
			<g>
				<path style="fill:#C47B38;" d="M455.46,85.394c0,5.047-4.091,9.138-9.137,9.138s-9.137-4.091-9.137-9.138
					c0-5.046,4.091-9.137,9.137-9.137S455.46,80.348,455.46,85.394z"/>
			</g>
			<g>
				<path style="fill:#9E5022;" d="M446.323,90.727c-2.94,0-5.333-2.392-5.333-5.333c0-2.94,2.392-5.333,5.333-5.333
					s5.333,2.392,5.333,5.333C451.656,88.335,449.264,90.727,446.323,90.727z"/>
			</g>
			<g>
				<g>
					<path style="fill:#1F294A;" d="M286.492,222.601c0,0,24.034-7.816,62.018-7.816c37.983,0,58.77,7.816,58.77,7.816
						s-26.788,9.645-58.799,9.645C316.47,232.246,286.492,222.601,286.492,222.601z"/>
				</g>
				<g>
					<path style="fill:#1F271D;" d="M297.384,224.921c-0.198,0-0.398-0.045-0.586-0.141c-0.642-0.324-0.899-1.108-0.574-1.749
						l49.135-97.159c0.324-0.642,1.108-0.899,1.749-0.574c0.642,0.324,0.899,1.107,0.574,1.749l-49.135,97.158
						C298.318,224.66,297.859,224.921,297.384,224.921z"/>
				</g>
				<g>
					<path style="fill:#1F271D;" d="M396.513,225.125c-0.473,0-0.928-0.258-1.159-0.708l-49.993-97.362
						c-0.328-0.639-0.076-1.424,0.563-1.753c0.64-0.328,1.424-0.076,1.753,0.564l49.993,97.362c0.329,0.64,0.076,1.424-0.563,1.753
						C396.917,225.079,396.714,225.125,396.513,225.125z"/>
				</g>
				<g>
					<path style="fill:#3D4C83;" d="M286.492,222.601c42.619,8.586,83.197,9.735,120.788,0c0,0-8.38,41.648-60.394,41.648
						C294.872,264.249,286.492,222.601,286.492,222.601z"/>
				</g>
			</g>
			<g>
				<g>
					<path style="fill:#1F271D;" d="M354.668,126.46c0,4.041-3.276,7.317-7.317,7.317c-4.041,0-7.317-3.276-7.317-7.317
						c0-4.041,3.276-7.317,7.317-7.317C351.392,119.143,354.668,122.419,354.668,126.46z"/>
				</g>
				<g>
					<path style="fill:#514933;" d="M347.351,131.218c-2.624,0-4.758-2.135-4.758-4.758s2.134-4.758,4.758-4.758
						c2.623,0,4.758,2.134,4.758,4.758S349.974,131.218,347.351,131.218z"/>
				</g>
			</g>
			<g>
				<g>
					<path style="fill:#1F294A;" d="M486.027,222.601c0,0,24.034-7.816,62.018-7.816c37.983,0,58.77,7.816,58.77,7.816
						s-26.788,9.645-58.799,9.645C516.005,232.246,486.027,222.601,486.027,222.601z"/>
				</g>
				<g>
					<path style="fill:#1F271D;" d="M496.918,224.921c-0.198,0-0.398-0.045-0.586-0.141c-0.642-0.324-0.899-1.108-0.574-1.749
						l49.135-97.159c0.324-0.642,1.108-0.899,1.749-0.574c0.642,0.324,0.899,1.107,0.575,1.749l-49.135,97.158
						C497.852,224.66,497.394,224.921,496.918,224.921z"/>
				</g>
				<g>
					<path style="fill:#1F271D;" d="M596.048,225.125c-0.473,0-0.928-0.258-1.159-0.708l-49.993-97.362
						c-0.328-0.639-0.077-1.424,0.563-1.753c0.64-0.328,1.424-0.076,1.753,0.564l49.993,97.362c0.329,0.64,0.076,1.424-0.563,1.753
						C596.452,225.079,596.248,225.125,596.048,225.125z"/>
				</g>
				<g>
					<path style="fill:#3D4C83;" d="M486.027,222.601c42.619,8.586,83.197,9.735,120.788,0c0,0-8.38,41.648-60.394,41.648
						C494.407,264.249,486.027,222.601,486.027,222.601z"/>
				</g>
			</g>
			<g>
				<g>
					<path style="fill:#1F271D;" d="M553.536,126.46c0,4.041-3.276,7.317-7.317,7.317c-4.041,0-7.317-3.276-7.317-7.317
						c0-4.041,3.276-7.317,7.317-7.317C550.26,119.143,553.536,122.419,553.536,126.46z"/>
				</g>
				<g>
					<path style="fill:#514933;" d="M546.219,131.218c-2.623,0-4.758-2.135-4.758-4.758s2.134-4.758,4.758-4.758
						c2.623,0,4.758,2.134,4.758,4.758S548.842,131.218,546.219,131.218z"/>
				</g>
			</g>
		</g>
		<g>
			<g>
				<g>
					<g>
						<g>
							<g>
								<g>
									<g>
										<g>
											<g>
												<g>
													<g>
														<g>
															<g>
																<g>
																	<path style="fill:#40401E;" d="M145.167,408.765c0,0-9.974,2.21-8.492-4.749c1.482-6.959,1.373-9.525-2.681-12.688
																		c-4.054-3.163-8.133-4.725-5.029-9.734c3.104-5.008-2.786-8.902-5.83-11.598c-3.044-2.696,0.392-4.728,1.198-9.824
																		c0.807-5.096-4.676-4.33-5.106-10.749c-0.431-6.419,6.09-13.921,0.484-22.755c0,0,7.53,3.905,10.004,10.765
																		c2.474,6.859,0.477,12.158,4.925,14.766c4.448,2.607,7.233,7.117,5.722,11.746
																		c-1.511,4.628,0.636,7.083,4.283,10.458c3.646,3.376,2.676,4.717,2.222,8.844c-0.454,4.127,0.457,3.152,4.632,8.79
																		C155.675,397.675,155.781,406.916,145.167,408.765z"/>
																</g>
															</g>
														</g>
													</g>
												</g>
											</g>
										</g>
									</g>
								</g>
							</g>
							<g>
								<g>
									<path style="fill:#1F271D;" d="M146.588,408.457c-0.021-0.034-0.038-0.068-0.051-0.107l-19.958-60.576
										c-0.086-0.259,0.056-0.541,0.315-0.627c0.003-0.001,0.006-0.002,0.009-0.003c0.258-0.08,0.534,0.062,0.619,0.319
										l19.957,60.575c0.017,0.048,0.024,0.098,0.025,0.148L146.588,408.457z"/>
								</g>
							</g>
						</g>
						<g>
							<g>
								<g>
									<g>
										<g>
											<g>
												<g>
													<g>
														<path style="fill:#40401E;" d="M163.165,408.639c0,0,9.921,2.198,8.447-4.724c-1.474-6.922-1.366-9.475,2.666-12.621
															c4.032-3.146,8.09-4.701,5.002-9.682c-3.088-4.982,2.771-8.854,5.799-11.536c3.028-2.682-0.39-4.704-1.192-9.773
															c-0.802-5.069,4.651-4.307,5.079-10.692c0.428-6.385-6.058-13.847-0.481-22.635c0,0-7.49,3.884-9.951,10.707
															c-2.46,6.823-0.474,12.094-4.899,14.687c-4.425,2.593-7.195,7.079-5.691,11.683c1.503,4.604-0.633,7.045-4.26,10.403
															c-3.627,3.358-2.662,4.692-2.211,8.797c0.451,4.105-0.455,3.135-4.607,8.744
															C152.714,397.608,152.608,406.8,163.165,408.639z"/>
													</g>
												</g>
											</g>
										</g>
									</g>
								</g>
							</g>
							<g>
								<g>
									<g>
										<g>
											<g>
												<g>
													<g>
														<g>
															<g>
																<path style="fill:#1F271D;" d="M160.839,408.064c0.001-0.049,0.008-0.099,0.025-0.148l19.851-60.253
																	c0.085-0.257,0.359-0.397,0.616-0.318c0.003,0.001,0.006,0.002,0.01,0.003c0.258,0.085,0.399,0.365,0.313,0.623
																	l-19.852,60.255c-0.012,0.039-0.03,0.074-0.05,0.107L160.839,408.064z"/>
															</g>
														</g>
													</g>
												</g>
											</g>
										</g>
									</g>
								</g>
							</g>
						</g>
						<g>
							<g>
								<g>
									<g>
										<g>
											<g>
												<g>
													<path style="fill:#66652B;" d="M152.148,407.379c0,0-11.417-0.945-7.518-7.907c3.899-6.961,4.634-9.746,1.343-14.48
														c-3.292-4.734-7.142-7.762-2.154-12.095c4.988-4.333-0.027-10.459-2.393-14.358c-2.365-3.899,1.991-4.934,4.547-10.125
														c2.556-5.19-3.57-6.191-1.899-13.209c1.671-7.018,11.146-12.887,8.075-24.212c0,0,6.769,6.683,7.139,14.852
														c0.372,8.168-3.527,13.181,0.372,17.451c3.898,4.27,5.384,10.025,2.228,14.48c-3.156,4.456-1.671,7.797,1.114,12.624
														c2.785,4.827,1.299,5.941-0.557,10.211c-1.857,4.27-0.557,3.527,2.042,10.953
														C167.085,398.99,164.13,408.923,152.148,407.379z"/>
												</g>
											</g>
										</g>
									</g>
								</g>
							</g>
							<g>
								<g>
									<path style="fill:#40401E;" d="M153.773,407.521c-0.011-0.043-0.019-0.086-0.019-0.132l-1.259-71.509
										c-0.005-0.306,0.24-0.561,0.546-0.566c0.004,0,0.007,0,0.011,0c0.303,0,0.551,0.243,0.557,0.548l1.259,71.507
										c0.002,0.058-0.008,0.113-0.022,0.167L153.773,407.521z"/>
								</g>
							</g>
						</g>
						<g>
							<g>
								<g>
									<g>
										<polygon style="fill:#1F271D;" points="126.207,402.406 127.234,406.212 127.432,406.945 128.358,410.385 
											128.556,411.118 137.77,445.274 137.968,446.006 138.896,449.447 139.092,450.179 140.143,454.074 166.512,454.074 
											167.563,450.179 167.758,449.447 168.687,446.006 168.885,445.274 178.098,411.118 178.296,410.385 179.223,406.945 
											179.42,406.212 180.447,402.406 										"/>
									</g>
								</g>
							</g>
						</g>
						<g>
							<g>
								<g>
									<g>
										<polygon style="fill:#514933;" points="179.42,406.212 179.223,406.945 127.432,406.945 127.234,406.212 										"/>
									</g>
								</g>
							</g>
						</g>
						<g>
							<g>
								<g>
									<g>
										<g>
											<polygon style="fill:#514933;" points="178.296,410.385 178.098,411.118 128.556,411.118 128.358,410.385 											"/>
										</g>
									</g>
								</g>
							</g>
						</g>
						<g>
							<g>
								<g>
									<g>
										<polygon style="fill:#514933;" points="168.885,445.274 168.687,446.006 137.968,446.006 137.77,445.274 										"/>
									</g>
								</g>
							</g>
						</g>
						<g>
							<g>
								<g>
									<g>
										<polygon style="fill:#514933;" points="167.758,449.447 167.563,450.179 139.092,450.179 138.896,449.447 										"/>
									</g>
								</g>
							</g>
						</g>
					</g>
				</g>
			</g>
		</g>
		<g>
			<g>
				<g>
					<path style="fill:#A64B31;" d="M310.59,407.024v47.212h205.447c13.033,0,23.606-10.568,23.606-23.606
						c0-6.517-2.643-12.422-6.915-16.69c-4.272-4.272-10.174-6.915-16.69-6.915H310.59z"/>
					<path style="fill:#783013;" d="M310.59,407.024v47.212h183.738c13.037,0,23.606-10.568,23.606-23.606
						c0-6.517-2.643-12.422-6.915-16.69c-4.272-4.272-10.17-6.915-16.69-6.915H310.59z"/>
					<path style="fill:#F5EFE0;" d="M311.119,446.858h184.805c8.256,0,14.948-6.693,14.948-14.948v-2.562
						c0-8.256-6.693-14.948-14.948-14.948H311.119c-0.291,0-0.527,0.236-0.527,0.527v31.404
						C310.592,446.622,310.828,446.858,311.119,446.858z"/>
				</g>
				<g>
					<g>
						<g>
							<g>
								<path style="fill:#D9CAB8;" d="M494.907,423.048l-184.314-0.226l0.003-2.419l184.314,0.226
									c0.667,0.001,1.208,0.542,1.208,1.21l0,0C496.118,422.507,495.576,423.049,494.907,423.048z"/>
							</g>
						</g>
					</g>
				</g>
				<g>
					<g>
						<g>
							<g>
								<path style="fill:#D9CAB8;" d="M494.907,431.162l-184.314-0.226l0.003-2.42l184.314,0.226
									c0.667,0.001,1.208,0.542,1.208,1.21l0,0C496.118,430.621,495.576,431.163,494.907,431.162z"/>
							</g>
						</g>
					</g>
				</g>
				<g>
					<g>
						<g>
							<g>
								<path style="fill:#D9CAB8;" d="M494.907,439.646l-184.314-0.226l0.003-2.419l184.314,0.226
									c0.667,0.001,1.208,0.542,1.208,1.21v0C496.118,439.105,495.576,439.647,494.907,439.646z"/>
							</g>
						</g>
					</g>
				</g>
			</g>
			<g>
				<g>
					<path style="fill:#7A5F2E;" d="M335.586,360.199v47.211h205.447c13.033,0,23.606-10.568,23.606-23.606
						c0-6.517-2.643-12.422-6.915-16.691c-4.272-4.272-10.174-6.915-16.69-6.915H335.586z"/>
					<path style="fill:#533D15;" d="M335.586,360.199v47.211h183.738c13.038,0,23.606-10.568,23.606-23.606
						c0-6.517-2.643-12.422-6.915-16.691c-4.272-4.272-10.17-6.915-16.691-6.915H335.586z"/>
					<path style="fill:#F5EFE0;" d="M335.588,400.034h185.332c8.256,0,14.948-6.693,14.948-14.948v-2.561
						c0-8.256-6.693-14.948-14.948-14.948H335.588V400.034z"/>
					<g>
						<g>
							<g>
								<g>
									<path style="fill:#D9CAB8;" d="M519.903,384.338l-184.314-0.226l0.003-2.42l184.314,0.226
										c0.668,0.001,1.208,0.542,1.208,1.21l0,0C521.114,383.797,520.571,384.339,519.903,384.338z"/>
								</g>
							</g>
						</g>
					</g>
					<g>
						<g>
							<g>
								<g>
									<g>
										<path style="fill:#D9CAB8;" d="M519.903,392.821l-184.314-0.226l0.003-2.42l184.314,0.226
											c0.668,0.001,1.208,0.542,1.208,1.21l0,0C521.114,392.28,520.571,392.822,519.903,392.821z"/>
									</g>
								</g>
							</g>
						</g>
					</g>
				</g>
				<g>
					<g>
						<g>
							<g>
								<path style="fill:#D9CAB8;" d="M519.903,376.224l-184.314-0.226l0.003-2.42l184.314,0.226
									c0.668,0.001,1.208,0.542,1.208,1.21l0,0C521.114,375.682,520.571,376.224,519.903,376.224z"/>
							</g>
						</g>
					</g>
				</g>
			</g>
			<g>
				<g>
					<path style="fill:#3D4C83;" d="M319.835,313.4v47.211h205.447c13.034,0,23.606-10.569,23.606-23.606
						c0-6.517-2.643-12.422-6.915-16.69c-4.272-4.272-10.174-6.915-16.691-6.915H319.835z"/>
					<path style="fill:#1F294A;" d="M319.835,313.4v47.211h183.738c13.038,0,23.606-10.569,23.606-23.606
						c0-6.517-2.643-12.422-6.915-16.69c-4.272-4.272-10.17-6.915-16.69-6.915H319.835z"/>
					<path style="fill:#F5EFE0;" d="M319.837,353.234h185.332c8.256,0,14.948-6.693,14.948-14.948v-2.562
						c0-8.256-6.693-14.948-14.948-14.948H319.837V353.234z"/>
					<g>
						<g>
							<g>
								<g>
									<path style="fill:#D9CAB8;" d="M504.152,329.424l-184.314-0.226l0.003-2.42l184.314,0.226
										c0.668,0.001,1.208,0.542,1.208,1.21l0,0C505.363,328.883,504.821,329.425,504.152,329.424z"/>
								</g>
							</g>
						</g>
					</g>
					<g>
						<g>
							<g>
								<g>
									<path style="fill:#D9CAB8;" d="M504.152,337.539l-184.314-0.226l0.003-2.42l184.314,0.226
										c0.668,0.001,1.208,0.542,1.208,1.21l0,0C505.363,336.998,504.821,337.539,504.152,337.539z"/>
								</g>
							</g>
						</g>
					</g>
					<g>
						<g>
							<g>
								<g>
									<path style="fill:#D9CAB8;" d="M504.152,346.022l-184.314-0.226l0.003-2.42l184.314,0.226
										c0.668,0.001,1.208,0.542,1.208,1.21l0,0C505.363,345.481,504.821,346.023,504.152,346.022z"/>
								</g>
							</g>
						</g>
					</g>
					<polygon style="fill:#A64B31;" points="363.363,326.878 363.363,350.033 356.103,342.773 348.594,350.281 348.594,326.779 
											"/>
				</g>
			</g>
		</g>
		<g>
			<path style="fill:#9C5022;" d="M617.282,454.235c-89.067-48.623-70.436-124.512-70.436-124.512
				c48.623-0.909,70.436-46.806,70.436-46.806s21.812,45.897,70.436,46.806C687.718,329.723,706.349,405.612,617.282,454.235z"/>
			<path style="fill:#C27B38;" d="M617.282,444.856c-17.311-9.988-31.348-21.799-41.766-35.15
				c-8.861-11.355-15.161-23.879-18.726-37.223c-4.03-15.087-3.636-27.931-2.884-34.998c19.4-1.985,37.325-10.797,52.191-25.736
				c4.607-4.629,8.323-9.248,11.186-13.25c2.863,4.002,6.579,8.62,11.186,13.25c14.866,14.939,32.791,23.751,52.191,25.736
				c0.752,7.067,1.146,19.911-2.884,34.998c-3.565,13.345-9.866,25.869-18.726,37.223
				C648.63,423.057,634.593,434.868,617.282,444.856z"/>
			<g>
				
					<ellipse transform="matrix(0.1583 -0.9874 0.9874 0.1583 149.9755 924.5945)" style="fill:#9C5022;" cx="617.282" cy="374.333" rx="39.003" ry="39.003"/>
				<path style="fill:#C27B38;" d="M617.282,407.687c-8.909,0-17.285-3.469-23.585-9.769c-6.3-6.3-9.769-14.676-9.769-23.585
					c0-8.909,3.469-17.285,9.769-23.585c6.3-6.3,14.675-9.769,23.585-9.769c8.909,0,17.285,3.469,23.585,9.769
					c6.3,6.3,9.769,14.675,9.769,23.585c0,8.909-3.469,17.285-9.769,23.585C634.567,404.218,626.191,407.687,617.282,407.687z"/>
				<g>
					<path style="fill:#9C5022;" d="M617.482,353.205c10.677,0,17.928,6.395,19.584,15.93h-13.361
						c-1.199-2.684-3.597-4.225-6.452-4.225c-4.282,0-6.909,3.483-6.909,8.85c0,5.367,2.627,8.85,6.909,8.85
						c2.855,0,5.253-1.542,6.452-4.225h13.361c-1.656,9.535-8.907,15.93-19.584,15.93c-12.39,0-19.984-8.507-19.984-20.555
						C597.498,361.713,605.092,353.205,617.482,353.205z"/>
				</g>
			</g>
			<path style="fill:#9C5022;" d="M562.516,344.264c0,1.255-1.017,2.272-2.272,2.272c-1.255,0-2.272-1.017-2.272-2.272
				c0-1.255,1.017-2.272,2.272-2.272C561.498,341.992,562.516,343.01,562.516,344.264z"/>
			<path style="fill:#9C5022;" d="M677.03,344.264c0,1.255-1.017,2.272-2.272,2.272c-1.255,0-2.272-1.017-2.272-2.272
				c0-1.255,1.017-2.272,2.272-2.272C676.013,341.992,677.03,343.01,677.03,344.264z"/>
			<path style="fill:#9C5022;" d="M619.546,309.955c0,1.255-1.017,2.272-2.272,2.272c-1.255,0-2.272-1.017-2.272-2.272
				c0-1.255,1.017-2.272,2.272-2.272C618.528,307.683,619.546,308.701,619.546,309.955z"/>
			<path style="fill:#9C5022;" d="M619.546,438.785c0,1.255-1.017,2.272-2.272,2.272c-1.255,0-2.272-1.017-2.272-2.272
				c0-1.255,1.017-2.272,2.272-2.272C618.528,436.513,619.546,437.53,619.546,438.785z"/>
		</g>
	</g>
	<g>
		<g>
			<g>
				<path style="fill:#DBCCBA;" d="M186.505,91.581l-77.988-0.112c-1.16-0.002-2.099-0.943-2.098-2.104l0.032-22.08
					c0.002-1.16,0.943-2.099,2.104-2.097l77.987,0.112c1.16,0.002,2.099,0.943,2.098,2.104l-0.032,22.08
					C188.606,90.644,187.665,91.583,186.505,91.581z"/>
				<g>
					<path style="fill:#F5EFE0;" d="M182.948,75.453l-44.508-0.064c-0.587-0.001-1.063-0.478-1.062-1.065l0-0.182
						c0.001-0.587,0.478-1.063,1.065-1.062l44.509,0.064c0.587,0.001,1.063,0.478,1.062,1.065l0,0.182
						C184.012,74.978,183.535,75.454,182.948,75.453z"/>
					<path style="fill:#F5EFE0;" d="M182.94,80.532l-44.509-0.064c-0.587-0.001-1.063-0.478-1.062-1.065l0-0.182
						c0.001-0.587,0.478-1.063,1.065-1.062l44.509,0.064c0.587,0.001,1.063,0.478,1.062,1.065l0,0.182
						C184.004,80.057,183.527,80.533,182.94,80.532z"/>
					<path style="fill:#F5EFE0;" d="M182.934,85.149l-44.508-0.064c-0.587-0.001-1.063-0.478-1.062-1.065l0-0.182
						c0.001-0.587,0.478-1.063,1.065-1.062l44.508,0.064c0.587,0.001,1.063,0.478,1.062,1.065l0,0.182
						C183.998,84.675,183.521,85.15,182.934,85.149z"/>
				</g>
				<g>
					<path style="fill:#C47B38;" d="M120.829,87.409L120.829,87.409c-5.239-0.007-9.479-4.26-9.471-9.499l0,0
						c0.008-5.239,4.26-9.479,9.499-9.472l0,0c5.239,0.008,9.479,4.26,9.472,9.499l0,0C130.32,83.176,126.067,87.416,120.829,87.409
						z"/>
				</g>
				<g>
					<path style="fill:#F5EFE0;" d="M121.9,82.235l-0.014,1.439l-1.828-0.018l0.013-1.374c-1.296-0.09-2.55-0.452-3.324-0.939
						l1.007-2.221c0.851,0.514,1.989,0.849,2.987,0.858c0.869,0.008,1.182-0.17,1.185-0.481c0.011-1.141-5.016-0.269-4.983-3.652
						c0.014-1.465,1.089-2.687,3.218-2.965l0.013-1.413l1.828,0.017l-0.013,1.387c0.959,0.1,1.89,0.355,2.625,0.777l-0.942,2.208
						c-0.89-0.462-1.731-0.691-2.522-0.698c-0.895-0.008-1.182,0.248-1.185,0.559c-0.01,1.089,5.016,0.23,4.984,3.575
						C124.936,80.695,123.913,81.904,121.9,82.235z"/>
				</g>
			</g>
			<g>
				<path style="fill:#DBCCBA;" d="M186.458,123.876l-77.988-0.112c-1.16-0.002-2.099-0.944-2.097-2.104l0.032-22.08
					c0.002-1.16,0.943-2.099,2.104-2.098l77.987,0.113c1.16,0.002,2.099,0.943,2.098,2.103l-0.032,22.08
					C188.56,122.939,187.618,123.878,186.458,123.876z"/>
				<g>
					<path style="fill:#F5EFE0;" d="M182.901,107.748l-44.509-0.064c-0.587-0.001-1.063-0.478-1.062-1.065l0-0.182
						c0.001-0.587,0.477-1.063,1.065-1.062l44.508,0.064c0.587,0.001,1.063,0.478,1.062,1.065l0,0.182
						C183.965,107.273,183.488,107.749,182.901,107.748z"/>
					<path style="fill:#F5EFE0;" d="M182.894,112.827l-44.509-0.064c-0.587-0.001-1.063-0.478-1.062-1.065l0-0.182
						c0.001-0.587,0.477-1.063,1.065-1.062l44.508,0.064c0.587,0.001,1.063,0.477,1.062,1.065l0,0.182
						C183.958,112.352,183.481,112.828,182.894,112.827z"/>
					<path style="fill:#F5EFE0;" d="M182.887,117.444l-44.509-0.064c-0.587-0.001-1.063-0.478-1.062-1.065l0-0.182
						c0.001-0.587,0.478-1.063,1.065-1.062l44.508,0.064c0.587,0.001,1.063,0.478,1.062,1.065l0,0.182
						C183.951,116.97,183.474,117.445,182.887,117.444z"/>
				</g>
				<g>
					<path style="fill:#66652B;" d="M120.782,119.704L120.782,119.704c-5.239-0.008-9.479-4.26-9.472-9.499l0,0
						c0.008-5.239,4.26-9.479,9.499-9.472l0,0c5.239,0.007,9.479,4.26,9.472,9.499l0,0
						C130.274,115.471,126.021,119.711,120.782,119.704z"/>
				</g>
				<g>
					<polygon style="fill:#F5EFE0;" points="117.758,115.703 114.773,111.566 116.564,110.274 117.999,112.263 125.226,104.734 
						126.819,106.263 					"/>
				</g>
			</g>
		</g>
		<g>
			<g>
				<g>
					<rect x="86.435" y="148.401" style="fill:#DBCCBA;" width="36.492" height="45.595"/>
				</g>
				<g>
					<g>
						<path style="fill:#F5EFE0;" d="M117.087,155.533H92.208c-0.409,0-0.741-0.332-0.741-0.741s0.332-0.742,0.741-0.742h24.879
							c0.41,0,0.741,0.332,0.741,0.742S117.496,155.533,117.087,155.533z"/>
					</g>
					<g>
						<path style="fill:#F5EFE0;" d="M117.087,160.113H92.208c-0.409,0-0.741-0.332-0.741-0.741c0-0.409,0.332-0.741,0.741-0.741
							h24.879c0.41,0,0.741,0.332,0.741,0.741C117.828,159.781,117.496,160.113,117.087,160.113z"/>
					</g>
					<g>
						<path style="fill:#F5EFE0;" d="M117.087,164.694H92.208c-0.409,0-0.741-0.332-0.741-0.741c0-0.409,0.332-0.742,0.741-0.742
							h24.879c0.41,0,0.741,0.332,0.741,0.742C117.828,164.362,117.496,164.694,117.087,164.694z"/>
					</g>
					<g>
						<path style="fill:#F5EFE0;" d="M117.087,169.274H92.208c-0.409,0-0.741-0.332-0.741-0.741c0-0.409,0.332-0.741,0.741-0.741
							h24.879c0.41,0,0.741,0.332,0.741,0.741C117.828,168.942,117.496,169.274,117.087,169.274z"/>
					</g>
					<g>
						<path style="fill:#F5EFE0;" d="M117.087,173.854H92.208c-0.409,0-0.741-0.332-0.741-0.741c0-0.409,0.332-0.741,0.741-0.741
							h24.879c0.41,0,0.741,0.332,0.741,0.741C117.828,173.522,117.496,173.854,117.087,173.854z"/>
					</g>
					<g>
						<path style="fill:#F5EFE0;" d="M117.087,178.435H92.208c-0.409,0-0.741-0.332-0.741-0.741c0-0.41,0.332-0.741,0.741-0.741
							h24.879c0.41,0,0.741,0.332,0.741,0.741C117.828,178.103,117.496,178.435,117.087,178.435z"/>
					</g>
				</g>
				<g>
					<g>
						<path style="fill:#F5EFE0;" d="M101.27,186.92h-9.062c-0.409,0-0.741-0.332-0.741-0.741c0-0.41,0.332-0.741,0.741-0.741h9.062
							c0.41,0,0.742,0.332,0.742,0.741C102.011,186.588,101.679,186.92,101.27,186.92z"/>
					</g>
				</g>
				<g>
					<g>
						<path style="fill:#F5EFE0;" d="M117.087,186.92h-9.062c-0.409,0-0.741-0.332-0.741-0.741c0-0.41,0.332-0.741,0.741-0.741
							h9.062c0.41,0,0.741,0.332,0.741,0.741C117.828,186.588,117.496,186.92,117.087,186.92z"/>
					</g>
				</g>
				<g style="opacity:0.5;">
					<rect x="86.435" y="148.401" style="fill:#B6A593;" width="18.56" height="35.099"/>
				</g>
			</g>
			<g>
				<g>
					<rect x="65.552" y="134.164" style="fill:#DBCCBA;" width="36.492" height="45.596"/>
				</g>
				<g>
					<g>
						<g>
							<path style="fill:#F5EFE0;" d="M96.205,141.295H71.326c-0.409,0-0.741-0.332-0.741-0.741c0-0.41,0.332-0.742,0.741-0.742
								h24.879c0.409,0,0.741,0.332,0.741,0.742C96.946,140.963,96.614,141.295,96.205,141.295z"/>
						</g>
					</g>
					<g>
						<path style="fill:#F5EFE0;" d="M96.205,145.876H71.326c-0.409,0-0.741-0.332-0.741-0.741c0-0.41,0.332-0.741,0.741-0.741
							h24.879c0.409,0,0.741,0.332,0.741,0.741C96.946,145.544,96.614,145.876,96.205,145.876z"/>
					</g>
					<g>
						<path style="fill:#F5EFE0;" d="M96.205,150.456H71.326c-0.409,0-0.741-0.332-0.741-0.741s0.332-0.742,0.741-0.742h24.879
							c0.409,0,0.741,0.332,0.741,0.742S96.614,150.456,96.205,150.456z"/>
					</g>
					<g>
						<path style="fill:#F5EFE0;" d="M96.205,155.036H71.326c-0.409,0-0.741-0.332-0.741-0.741c0-0.41,0.332-0.741,0.741-0.741
							h24.879c0.409,0,0.741,0.332,0.741,0.741C96.946,154.704,96.614,155.036,96.205,155.036z"/>
					</g>
					<g>
						<path style="fill:#F5EFE0;" d="M96.205,159.617H71.326c-0.409,0-0.741-0.332-0.741-0.742c0-0.409,0.332-0.741,0.741-0.741
							h24.879c0.409,0,0.741,0.332,0.741,0.741C96.946,159.285,96.614,159.617,96.205,159.617z"/>
					</g>
					<g>
						<path style="fill:#F5EFE0;" d="M96.205,164.197H71.326c-0.409,0-0.741-0.332-0.741-0.741c0-0.409,0.332-0.741,0.741-0.741
							h24.879c0.409,0,0.741,0.332,0.741,0.741C96.946,163.865,96.614,164.197,96.205,164.197z"/>
					</g>
				</g>
				<g>
					<g>
						<path style="fill:#F5EFE0;" d="M80.388,172.682h-9.062c-0.409,0-0.741-0.332-0.741-0.741c0-0.409,0.332-0.741,0.741-0.741
							h9.062c0.41,0,0.742,0.332,0.742,0.741C81.129,172.35,80.797,172.682,80.388,172.682z"/>
					</g>
				</g>
				<g>
					<g>
						<path style="fill:#F5EFE0;" d="M96.205,172.682h-9.062c-0.409,0-0.741-0.332-0.741-0.741c0-0.409,0.332-0.741,0.741-0.741
							h9.062c0.409,0,0.741,0.332,0.741,0.741C96.946,172.35,96.614,172.682,96.205,172.682z"/>
					</g>
				</g>
			</g>
		</g>
		<g>
			<g>
				<g>
					<g>
						<g>
							<g>
								<path style="fill:#1F271D;" d="M307.267,69.047h-5.52c0-0.01-0.001-0.02-0.001-0.029c0-0.001,0-0.001,0-0.001
									c-0.028-1.246-0.225-2.452-0.57-3.594c-1.678-5.562-6.849-9.625-12.951-9.625c-6.103,0-11.273,4.063-12.952,9.625
									c-0.344,1.142-0.542,2.348-0.569,3.594c0,0.001,0,0.001,0,0.001c0,0.01-0.001,0.02-0.001,0.029h-5.521
									c0-0.01,0-0.02,0.001-0.029c0-0.001,0-0.001,0-0.001c0.019-1.221,0.152-2.423,0.395-3.594c0.745-3.6,2.52-6.907,5.18-9.566
									c3.597-3.598,8.381-5.579,13.468-5.579c5.087,0,9.87,1.981,13.467,5.579c2.66,2.659,4.435,5.967,5.18,9.566
									c0.243,1.172,0.376,2.373,0.395,3.594c0,0.001,0,0.001,0,0.001C307.267,69.027,307.267,69.037,307.267,69.047z"/>
							</g>
						</g>
						<g>
							<g>
								<g>
									<rect x="263.404" y="70.115" style="fill:#C47B38;" width="49.64" height="36.815"/>
								</g>
							</g>
						</g>
						<path style="fill:#9E5022;" d="M315.413,104.583v0.069c-0.02,0.619-0.279,1.18-0.688,1.59
							c-0.426,0.426-1.013,0.688-1.659,0.688h-49.821c-1.268,0-2.311-1.019-2.347-2.278v-0.069c0-0.642,0.262-1.229,0.688-1.655
							c0.426-0.426,1.013-0.688,1.658-0.688h49.821C314.358,102.239,315.413,103.295,315.413,104.583z"/>
					</g>
					<path style="fill:#1F271D;" d="M285.133,98.137l1.254-9.439l-0.973-0.663c-1.372-0.935-2.192-2.479-2.192-4.127
						c0-2.739,2.228-4.968,4.968-4.968c2.739,0,4.968,2.229,4.968,4.968c0,1.649-0.819,3.192-2.192,4.127l-0.973,0.663l1.254,9.439
						H285.133z"/>
					<path style="fill:#9E5022;" d="M268.004,99.026c0,0.669-0.542,1.211-1.211,1.211s-1.211-0.542-1.211-1.211
						c0-0.669,0.542-1.211,1.211-1.211S268.004,98.357,268.004,99.026z"/>
					<path style="fill:#9E5022;" d="M268.004,76.666c0,0.669-0.542,1.21-1.211,1.21s-1.211-0.542-1.211-1.21
						c0-0.669,0.542-1.211,1.211-1.211S268.004,75.998,268.004,76.666z"/>
					<path style="fill:#9E5022;" d="M310.659,99.026c0,0.669-0.542,1.211-1.211,1.211c-0.669,0-1.211-0.542-1.211-1.211
						c0-0.669,0.542-1.211,1.211-1.211C310.117,97.815,310.659,98.357,310.659,99.026z"/>
					<path style="fill:#9E5022;" d="M310.659,76.666c0,0.669-0.542,1.21-1.211,1.21c-0.669,0-1.211-0.542-1.211-1.21
						c0-0.669,0.542-1.211,1.211-1.211C310.117,75.456,310.659,75.998,310.659,76.666z"/>
				</g>
				<path style="fill:#9E5022;" d="M315.482,71.363v0.033c-0.01,0.633-0.272,1.206-0.688,1.626
					c-0.426,0.423-1.013,0.688-1.658,0.688h-49.821c-1.282,0-2.33-1.039-2.347-2.314v-0.033c0-0.646,0.262-1.232,0.688-1.655
					c0.426-0.426,1.013-0.692,1.659-0.692h49.821C314.426,69.016,315.482,70.072,315.482,71.363z"/>
			</g>
		</g>
	</g>
	<g>
		<g>
			<g>
				<g>
					<path style="fill:#A64B31;" d="M680.38,214.639l-0.019,26.101c0,1.23-0.998,2.228-2.231,2.228l-16.894-0.012l0.003-0.003
						h-3.423l-6.498-0.003c-1.233,0-2.231-1.001-2.228-2.231l0.018-26.102c0-1.23,0.998-2.228,2.228-2.228l26.815,0.019
						C679.382,212.411,680.38,213.409,680.38,214.639z"/>
				</g>
			</g>
			<g>
				<path style="fill:#1F271D;" d="M647.17,230.519c-0.186,0-0.337-0.151-0.337-0.337v-17.131c0-1.588,1.292-2.88,2.88-2.88h14.288
					c0.186,0,0.337,0.151,0.337,0.337c0,0.186-0.151,0.337-0.337,0.337h-14.288c-1.217,0-2.207,0.99-2.207,2.207v17.131
					C647.506,230.368,647.356,230.519,647.17,230.519z"/>
			</g>
			<g>
				<g>
					<path style="fill:#F5EFE0;" d="M655.383,227.678c0,5.157,4.195,9.352,9.352,9.352c5.157,0,9.352-4.196,9.352-9.352
						c0-5.157-4.195-9.352-9.352-9.352C659.579,218.326,655.383,222.522,655.383,227.678z M660.631,231.132
						c-0.305-1.017-0.473-2.119-0.499-3.277h4.228v3.277H660.631z M662.836,236.067c-2.376-0.536-4.396-2.042-5.6-4.183h2.849
						c0.392,1.106,0.939,2.109,1.625,2.98C662.057,235.305,662.435,235.708,662.836,236.067z M664.359,231.884l0,4.386
						c-0.284-0.167-1.18-0.749-2.076-1.894c-0.574-0.734-1.044-1.572-1.396-2.492H664.359z M661.092,223.074
						c0.998-2.21,2.465-3.57,2.932-3.966c0.112-0.009,0.224-0.016,0.335-0.021v3.987H661.092z M657.476,223.074
						c1.198-1.882,3.087-3.235,5.238-3.756c-0.423,0.447-0.82,0.937-1.183,1.458c-0.501,0.72-0.925,1.493-1.26,2.298H657.476z
						 M660.136,227.103c0.044-1.12,0.263-2.221,0.649-3.277h3.574v3.277H660.136z M656.155,227.103
						c0.076-1.148,0.376-2.25,0.893-3.277h2.94c-0.36,1.062-0.563,2.164-0.604,3.277H656.155z M659.379,227.855
						c0.025,1.151,0.182,2.253,0.468,3.277h-2.988c-0.456-1.036-0.699-2.138-0.722-3.277H659.379z M670.004,227.855h3.329
						c-0.023,1.139-0.266,2.241-0.722,3.277h-3.075C669.822,230.107,669.98,229.006,670.004,227.855z M665.112,223.074v-3.987
						c0.08,0.003,0.159,0.008,0.238,0.013c0.324,0.273,1.112,0.99,1.898,2.123c0.405,0.583,0.756,1.205,1.046,1.851H665.112z
						 M668.599,223.826c0.386,1.059,0.604,2.161,0.648,3.277h-4.136v-3.277H668.599z M669.113,223.074
						c-0.335-0.805-0.759-1.578-1.26-2.298c-0.37-0.531-0.776-1.029-1.208-1.484c2.199,0.501,4.128,1.863,5.349,3.781H669.113z
						 M669.252,227.855c-0.026,1.162-0.193,2.264-0.498,3.277h-3.642v-3.277H669.252z M670,227.103
						c-0.041-1.113-0.244-2.214-0.604-3.277h3.026c0.517,1.028,0.818,2.13,0.894,3.277H670z M672.235,231.884
						c-1.21,2.148-3.319,3.697-5.715,4.207c0.411-0.365,0.798-0.776,1.153-1.227c0.687-0.872,1.233-1.874,1.625-2.98H672.235z
						 M668.496,231.884c-1.038,2.695-2.815,3.977-3.384,4.333v-4.333H668.496z"/>
				</g>
			</g>
		</g>
		<g>
			<g>
				<g>
					<g>
						<g>
							<g>
								<g>
									<path style="fill:#3D4C83;" d="M649.11,258.846l0.018,26.094c0,1.229,0.998,2.227,2.23,2.227l16.89-0.012l-0.003-0.003
										h3.422l6.496-0.003c1.232,0,2.23-1.001,2.227-2.23l-0.018-26.094c0-1.229-0.998-2.227-2.227-2.227l-26.808,0.018
										C650.108,256.619,649.11,257.617,649.11,258.846z"/>
								</g>
							</g>
						</g>
					</g>
				</g>
			</g>
			<g>
				<path style="fill:#1F271D;" d="M647.582,275.18c-0.186,0-0.337-0.151-0.337-0.337v-17.131c0-1.588,1.292-2.88,2.88-2.88h14.288
					c0.186,0,0.337,0.151,0.337,0.337c0,0.186-0.151,0.337-0.337,0.337h-14.288c-1.217,0-2.207,0.99-2.207,2.207v17.131
					C647.918,275.029,647.768,275.18,647.582,275.18z"/>
			</g>
			<g>
				<polygon style="fill:#F5EFE0;" points="659.599,280.972 655.048,274.665 657.778,272.695 659.966,275.728 670.983,264.249 
					673.412,266.58 				"/>
			</g>
		</g>
	</g>
</g>
</svg>
