<?xml version="1.0" encoding="UTF-8"?>
<!DOCTYPE svg PUBLIC "-//W3C//DTD SVG 1.1//EN" "http://www.w3.org/Graphics/SVG/1.1/DTD/svg11.dtd">
<!-- Creator: CorelDRAW 2021 (64-Bit) -->
<svg xmlns="http://www.w3.org/2000/svg" xml:space="preserve" width="200px" height="200px" version="1.1" style="shape-rendering:geometricPrecision; text-rendering:geometricPrecision; image-rendering:optimizeQuality; fill-rule:evenodd; clip-rule:evenodd"
viewBox="0 0 200 200"
 xmlns:xlink="http://www.w3.org/1999/xlink"
 xmlns:xodm="http://www.corel.com/coreldraw/odm/2003">
 <defs>
  <style type="text/css">
   <![CDATA[
    .fil0 {fill:white}
   ]]>
  </style>
 </defs>
 <g id="Layer_x0020_1">
  <metadata id="CorelCorpID_0Corel-Layer"/>
  <path className="fil0" d="M11.72 108.59c6.82,3.61 8.53,3.31 15.62,5.08 4.19,1.05 48.12,12.06 50.39,12.11 0,5.97 0,10.49 4.14,14.62 2.41,2.4 5.44,4.13 9.15,4.13 6.5,0 19.17,0.94 23.57,-1.42l3.54 -2.71c0.13,-0.13 0.49,-0.52 0.57,-0.61 3.6,-3.96 3.57,-8.45 3.57,-14.01 2.04,-0.04 6.23,-1.26 8.36,-1.79 2.99,-0.75 5.59,-1.4 8.43,-2.11 5.58,-1.4 10.97,-2.65 16.64,-4.07l25.17 -6.08c2.55,-0.64 5.3,-2.02 7.41,-3.14 0,7.54 0.77,53.76 -0.85,58.92 -0.89,2.83 -2.13,4.09 -4.12,6.04 -1.37,1.34 -4.61,3.01 -7.14,3.01l-152.34 0c-4.71,0 -9.57,-4.23 -11.16,-8.76 -1.42,-4.03 -0.95,-13.46 -0.95,-18.97 0,-13.41 0,-26.82 0,-40.24zm188.28 -34.85l0 91.26c-0.05,4.8 -2.31,10.13 -5.02,13.58 -4.84,6.16 -11.75,10.09 -19.98,10.09l-150 0c-13.11,0 -25,-11.28 -25,-23.82l0 -91.02c0,-5.24 1.58,-9 3.38,-12.63 5.74,-11.54 16.67,-17.06 29.82,-17.06l26.57 0 0 -18.36c0,-2.38 0.73,-4.53 1.63,-6.18 2.9,-5.33 7.46,-8.27 14.38,-8.27l48.44 0c6.96,0 11.7,3.05 14.52,8.52 2.48,4.81 1.49,17.25 1.49,24.29l26.57 0c5.4,0 9.84,0.89 13.72,2.29 10.18,3.66 19.43,15.34 19.48,27.31zm-110.16 57.12l0 -16.8c0,-1.53 1.93,-1.95 3.52,-1.95l13.28 0c1.59,0 3.52,0.42 3.52,1.95l0 16.8c0,1.26 -1.42,1.95 -2.74,1.95l-14.84 0c-1.32,0 -2.74,-0.69 -2.74,-1.95zm-78.12 -46.48c0,-10.28 -0.24,-20.49 10.41,-25.93 1.91,-0.97 5.27,-2.2 7.95,-2.2l139.84 0c5.19,0 10.23,2.88 13.59,6.72 5.37,6.11 4.77,12.83 4.77,21.41 0,11.27 -4.72,14.26 -13.59,16.48 -8.08,2.02 -16.18,3.83 -24.53,5.93l-27.27 6.73c-2.58,-0.08 0.88,-6.07 -7.62,-11.21 -1.31,-0.79 -3.77,-1.92 -5.89,-1.92l-18.76 0c-1.85,0 -4.35,0.99 -5.65,1.77 -3.25,1.96 -5.51,4.52 -6.51,8.33 -0.98,3.68 0.32,3.5 -3.85,2.4 -15.86,-4.16 -32.98,-7.95 -48.99,-11.95 -5.43,-1.36 -6.85,-1.46 -10.3,-4.93 -2.61,-2.62 -3.6,-6.54 -3.6,-11.63zm60.16 -58.21c0,-1.82 0.9,-2.73 2.73,-2.73l50.78 0c1.83,0 2.73,0.91 2.73,2.73l0 17.97 -56.24 0 0 -17.97z"/>
 </g>
</svg>
