<?xml version="1.0" encoding="UTF-8"?>
<!DOCTYPE svg PUBLIC "-//W3C//DTD SVG 1.1//EN" "http://www.w3.org/Graphics/SVG/1.1/DTD/svg11.dtd">
<!-- Creator: CorelDRAW 2021 (64-Bit) -->
<svg xmlns="http://www.w3.org/2000/svg" xml:space="preserve" width="200px" height="200px" version="1.1" style="shape-rendering:geometricPrecision; text-rendering:geometricPrecision; image-rendering:optimizeQuality; fill-rule:evenodd; clip-rule:evenodd"
viewBox="0 0 200 200"
 xmlns:xlink="http://www.w3.org/1999/xlink"
 xmlns:xodm="http://www.corel.com/coreldraw/odm/2003">
 <defs>
  <style type="text/css">
   <![CDATA[
    .fil0 {fill:white}
   ]]>
  </style>
 </defs>
 <g id="Layer_x0020_1">
  <metadata id="CorelCorpID_0Corel-Layer"/>
  <g id="_2737435607040">
   <path className="fil0" d="M93.25 119.27c25.62,-3.38 45.49,11.92 53.65,26.7 6.1,11.03 7.1,19.03 7.12,33.47 0.01,6.29 -1.21,13.9 2.59,17.73 4.12,4.15 10.53,3.57 13.65,-0.67 2.97,-4.05 1.81,-12.71 1.82,-18.33 0.01,-6.75 -0.06,-12.36 -1.3,-18.85 -2.69,-14.1 -8.39,-24.49 -16.8,-33.94 -1.84,-2.07 -2.96,-3.29 -4.94,-5.23 -19.62,-19.24 -51.17,-24.45 -76.64,-13.91 -18.22,7.54 -33.12,22.7 -40,41.21 -4.75,12.77 -4.63,21.37 -4.66,35.79 -0.02,7.16 -0.65,12.51 4.7,15.46 5.8,3.2 11.55,-0.68 12.96,-5.26 0.85,-2.79 0.39,-15.98 0.39,-19.93 0.03,-26.83 18.35,-50.41 47.46,-54.24z"/>
   <path className="fil0" d="M95.88 19.92c16.11,-2.39 28.65,8.75 30.75,22.37 2.52,16.33 -8.81,29.01 -22.36,31.07 -16.3,2.48 -28.96,-8.84 -31.1,-22.37 -2.61,-16.4 9.09,-29.06 22.71,-31.07zm-0.31 -18.15c-14.3,1.56 -23.64,8.41 -29.88,15.72 -3.66,4.29 -6.37,8.55 -8.3,14.12 -2.13,6.18 -3.08,12.7 -2.37,19.7 2.36,22.98 23.46,43.09 49.64,40.18 23.14,-2.56 42.92,-23.26 40.12,-49.53 -2.45,-22.89 -23.17,-43.03 -49.21,-40.19z"/>
  </g>
 </g>
</svg>
